<svg width="24" height="24" viewBox="0 0 24 24" fill="none" xmlns="http://www.w3.org/2000/svg">
<g clip-path="url(#clip0_1217_240896)">
<rect width="24" height="24" rx="12" fill="#FF4E4E"/>
<path d="M33 0H-9V24H33V0Z" fill="#DA0000"/>
<path d="M33 0H-9V16H33V0Z" fill="white"/>
<path d="M33 0H-9V8H33V0Z" fill="#239F40"/>
<path d="M2.57206 7.6267H1.63872V7.25337H1.07872V7.44003H1.45206V7.6267H0.892057V7.0667H1.63872V6.69337H1.82539V7.44003H2.01206V6.69337H2.19872V7.44003H2.38539V6.69337H2.57206V7.6267ZM0.705391 7.6267H-0.227942V7.25337H-0.787943V7.6267H-0.974609V7.0667H-0.0412766V7.44003H0.518724V7.25337H0.14539V7.0667H0.705391V7.6267ZM-0.414609 7.6267H-0.601276V7.44003H-0.414609V7.6267ZM1.45206 6.88003H-0.974609V6.69337H1.45206V6.88003Z" fill="white"/>
<path d="M2.57206 8.18671H0.892057V7.81337H2.57206V8.18671ZM0.705391 8.18671H-0.974609V7.81337H0.705391V8.18671Z" fill="white"/>
<path d="M2.57206 16.1867H0.892057V15.8134H2.57206V16.1867ZM0.705391 16.1867H-0.974609V15.8134H0.705391V16.1867Z" fill="white"/>
<path d="M-0.787943 17.3067H-0.974609V16.7467H-0.0412766V17.12H0.518724V16.9334H0.14539V16.7467H0.705391V17.3067H-0.227942V16.9334H-0.787943V17.3067ZM2.57206 17.3067H1.63872V16.9334H1.07872V17.12H1.45206V17.3067H0.892057V16.7467H1.63872V16.3734H1.82539V17.12H2.01206V16.3734H2.19872V17.12H2.38539V16.3734H2.57206V17.3067ZM-0.414609 17.3067H-0.601276V17.12H-0.414609V17.3067ZM1.45206 16.56H-0.974609V16.3734H1.45206V16.56Z" fill="white"/>
<path d="M6.30839 7.62669H5.37505V7.25336H4.81505V7.44003H5.18839V7.62669H4.62839V7.06669H5.37505V6.69336H5.56172V7.44003H5.74839V6.69336H5.93505V7.44003H6.12172V6.69336H6.30839V7.62669ZM4.44172 7.62669H3.50839V7.25336H2.94839V7.62669H2.76172V7.06669H3.69505V7.44003H4.25505V7.25336H3.88172V7.06669H4.44172V7.62669ZM3.32172 7.62669H3.13505V7.44003H3.32172V7.62669ZM5.18839 6.88003H2.76172V6.69336H5.18839V6.88003Z" fill="white"/>
<path d="M6.30839 8.1867H4.62839V7.81336H6.30839V8.1867ZM4.44172 8.1867H2.76172V7.81336H4.44172V8.1867Z" fill="white"/>
<path d="M6.30839 16.1867H4.62839V15.8134H6.30839V16.1867ZM4.44172 16.1867H2.76172V15.8134H4.44172V16.1867Z" fill="white"/>
<path d="M2.94839 17.3067H2.76172V16.7467H3.69505V17.12H4.25505V16.9334H3.88172V16.7467H4.44172V17.3067H3.50839V16.9334H2.94839V17.3067ZM6.30839 17.3067H5.37505V16.9334H4.81505V17.12H5.18839V17.3067H4.62839V16.7467H5.37505V16.3734H5.56172V17.12H5.74839V16.3734H5.93505V17.12H6.12172V16.3734H6.30839V17.3067ZM3.32172 17.3067H3.13505V17.12H3.32172V17.3067ZM5.18839 16.56H2.76172V16.3734H5.18839V16.56Z" fill="white"/>
<path d="M10.0369 7.6267H9.10357V7.25337H8.54357V7.44003H8.9169V7.6267H8.3569V7.0667H9.10357V6.69337H9.29023V7.44003H9.4769V6.69337H9.66357V7.44003H9.85023V6.69337H10.0369V7.6267ZM8.17024 7.6267H7.2369V7.25337H6.6769V7.6267H6.49023V7.0667H7.42357V7.44003H7.98357V7.25337H7.61023V7.0667H8.17024V7.6267ZM7.05024 7.6267H6.86357V7.44003H7.05024V7.6267ZM8.9169 6.88003H6.49023V6.69337H8.9169V6.88003Z" fill="white"/>
<path d="M10.0369 8.18671H8.3569V7.81337H10.0369V8.18671ZM8.17024 8.18671H6.49023V7.81337H8.17024V8.18671Z" fill="white"/>
<path d="M10.0369 16.1867H8.3569V15.8134H10.0369V16.1867ZM8.17024 16.1867H6.49023V15.8134H8.17024V16.1867Z" fill="white"/>
<path d="M6.6769 17.3067H6.49023V16.7467H7.42357V17.12H7.98357V16.9334H7.61023V16.7467H8.17024V17.3067H7.2369V16.9334H6.6769V17.3067ZM10.0369 17.3067H9.10357V16.9334H8.54357V17.12H8.9169V17.3067H8.3569V16.7467H9.10357V16.3734H9.29023V17.12H9.4769V16.3734H9.66357V17.12H9.85023V16.3734H10.0369V17.3067ZM7.05024 17.3067H6.86357V17.12H7.05024V17.3067ZM8.9169 16.56H6.49023V16.3734H8.9169V16.56Z" fill="white"/>
<path d="M13.7713 7.62669H12.8379V7.25336H12.2779V7.44003H12.6513V7.62669H12.0913V7.06669H12.8379V6.69336H13.0246V7.44003H13.2113V6.69336H13.3979V7.44003H13.5846V6.69336H13.7713V7.62669ZM11.9046 7.62669H10.9713V7.25336H10.4113V7.62669H10.2246V7.06669H11.1579V7.44003H11.7179V7.25336H11.3446V7.06669H11.9046V7.62669ZM10.7846 7.62669H10.5979V7.44003H10.7846V7.62669ZM12.6513 6.88003H10.2246V6.69336H12.6513V6.88003Z" fill="white"/>
<path d="M13.7713 8.1867H12.0913V7.81336H13.7713V8.1867ZM11.9046 8.1867H10.2246V7.81336H11.9046V8.1867Z" fill="white"/>
<path d="M13.7713 16.1867H12.0913V15.8134H13.7713V16.1867ZM11.9046 16.1867H10.2246V15.8134H11.9046V16.1867Z" fill="white"/>
<path d="M10.4113 17.3067H10.2246V16.7467H11.1579V17.12H11.7179V16.9334H11.3446V16.7467H11.9046V17.3067H10.9713V16.9334H10.4113V17.3067ZM13.7713 17.3067H12.8379V16.9334H12.2779V17.12H12.6513V17.3067H12.0913V16.7467H12.8379V16.3734H13.0246V17.12H13.2113V16.3734H13.3979V17.12H13.5846V16.3734H13.7713V17.3067ZM10.7846 17.3067H10.5979V17.12H10.7846V17.3067ZM12.6513 16.56H10.2246V16.3734H12.6513V16.56Z" fill="white"/>
<path d="M17.5037 7.6267H16.5704V7.25337H16.0104V7.44003H16.3837V7.6267H15.8237V7.0667H16.5704V6.69337H16.757V7.44003H16.9437V6.69337H17.1304V7.44003H17.317V6.69337H17.5037V7.6267ZM15.637 7.6267H14.7037V7.25337H14.1437V7.6267H13.957V7.0667H14.8904V7.44003H15.4504V7.25337H15.077V7.0667H15.637V7.6267ZM14.517 7.6267H14.3304V7.44003H14.517V7.6267ZM16.3837 6.88003H13.957V6.69337H16.3837V6.88003Z" fill="white"/>
<path d="M17.5037 8.18671H15.8237V7.81337H17.5037V8.18671ZM15.637 8.18671H13.957V7.81337H15.637V8.18671Z" fill="white"/>
<path d="M17.5037 16.1867H15.8237V15.8134H17.5037V16.1867ZM15.637 16.1867H13.957V15.8134H15.637V16.1867Z" fill="white"/>
<path d="M14.1437 17.3067H13.957V16.7467H14.8904V17.12H15.4504V16.9334H15.077V16.7467H15.637V17.3067H14.7037V16.9334H14.1437V17.3067ZM17.5037 17.3067H16.5704V16.9334H16.0104V17.12H16.3837V17.3067H15.8237V16.7467H16.5704V16.3734H16.757V17.12H16.9437V16.3734H17.1304V17.12H17.317V16.3734H17.5037V17.3067ZM14.517 17.3067H14.3304V17.12H14.517V17.3067ZM16.3837 16.56H13.957V16.3734H16.3837V16.56Z" fill="white"/>
<path d="M21.24 7.6267H20.3067V7.25337H19.7467V7.44004H20.12V7.6267H19.56V7.0667H20.3067V6.69337H20.4934V7.44004H20.68V6.69337H20.8667V7.44004H21.0534V6.69337H21.24V7.6267ZM19.3734 7.6267H18.44V7.25337H17.88V7.6267H17.6934V7.0667H18.6267V7.44004H19.1867V7.25337H18.8134V7.0667H19.3734V7.6267ZM18.2534 7.6267H18.0667V7.44004H18.2534V7.6267ZM20.12 6.88004H17.6934V6.69337H20.12V6.88004Z" fill="white"/>
<path d="M21.24 8.18671H19.56V7.81338H21.24V8.18671ZM19.3734 8.18671H17.6934V7.81338H19.3734V8.18671Z" fill="white"/>
<path d="M21.24 16.1867H19.56V15.8134H21.24V16.1867ZM19.3734 16.1867H17.6934V15.8134H19.3734V16.1867Z" fill="white"/>
<path d="M17.88 17.3067H17.6934V16.7467H18.6267V17.12H19.1867V16.9334H18.8134V16.7467H19.3734V17.3067H18.44V16.9334H17.88V17.3067ZM21.24 17.3067H20.3067V16.9334H19.7467V17.12H20.12V17.3067H19.56V16.7467H20.3067V16.3734H20.4934V17.12H20.68V16.3734H20.8667V17.12H21.0534V16.3734H21.24V17.3067ZM18.2534 17.3067H18.0667V17.12H18.2534V17.3067ZM20.12 16.56H17.6934V16.3734H20.12V16.56Z" fill="white"/>
<path d="M24.9705 7.62671H24.0372V7.25337H23.4772V7.44004H23.8505V7.62671H23.2905V7.06671H24.0372V6.69337H24.2238V7.44004H24.4105V6.69337H24.5972V7.44004H24.7838V6.69337H24.9705V7.62671ZM23.1038 7.62671H22.1705V7.25337H21.6105V7.62671H21.4238V7.06671H22.3572V7.44004H22.9172V7.25337H22.5438V7.06671H23.1038V7.62671ZM21.9838 7.62671H21.7972V7.44004H21.9838V7.62671ZM23.8505 6.88004H21.4238V6.69337H23.8505V6.88004Z" fill="white"/>
<path d="M24.9705 8.18671H23.2905V7.81338H24.9705V8.18671ZM23.1038 8.18671H21.4238V7.81338H23.1038V8.18671Z" fill="white"/>
<path d="M24.9705 16.1867H23.2905V15.8134H24.9705V16.1867ZM23.1038 16.1867H21.4238V15.8134H23.1038V16.1867Z" fill="white"/>
<path d="M21.6105 17.3067H21.4238V16.7467H22.3572V17.1201H22.9172V16.9334H22.5438V16.7467H23.1038V17.3067H22.1705V16.9334H21.6105V17.3067ZM24.9705 17.3067H24.0372V16.9334H23.4772V17.1201H23.8505V17.3067H23.2905V16.7467H24.0372V16.3734H24.2238V17.1201H24.4105V16.3734H24.5972V17.1201H24.7838V16.3734H24.9705V17.3067ZM21.9838 17.3067H21.7972V17.1201H21.9838V17.3067ZM23.8505 16.5601H21.4238V16.3734H23.8505V16.5601Z" fill="white"/>
<path d="M10.3555 14.5093C10.9574 14.7085 11.6099 14.6922 12.2012 14.4633C12.7925 14.2343 13.2858 13.8069 13.5966 13.2542C13.9074 12.7015 14.0164 12.058 13.9049 11.4338C13.7934 10.8096 13.4684 10.2436 12.9855 9.83266C13.2974 10.2941 13.4747 10.8332 13.4976 11.3896C13.5204 11.9461 13.388 12.4979 13.115 12.9833C12.842 13.4688 12.4393 13.8686 11.9519 14.1381C11.4645 14.4077 10.9117 14.5362 10.3555 14.5093Z" fill="#DA0000"/>
<path d="M13.8562 13.984C14.2513 13.7557 14.5692 13.4146 14.7692 13.0045C14.9693 12.5944 15.0424 12.1339 14.9792 11.682C14.9159 11.2301 14.7193 10.8074 14.4144 10.468C14.1094 10.1285 13.7101 9.88781 13.2676 9.77666C13.9034 10.2547 14.3233 10.9658 14.4349 11.7534C14.5465 12.541 14.3408 13.3407 13.8629 13.9767L13.8582 13.9833" fill="#DA0000"/>
<path d="M11.9996 15L11.8496 12L11.9996 9.638C12.0906 9.76542 12.2124 9.86772 12.3536 9.93533V11.6987L12.2329 14.6787L11.9996 15Z" fill="#DA0000"/>
<path d="M11.9395 9.45L11.9995 9.50667C12.0602 9.59406 12.1511 9.65597 12.2547 9.68056C12.3583 9.70514 12.4673 9.69067 12.5609 9.63992C12.6545 9.58917 12.7261 9.50569 12.762 9.40546C12.7979 9.30523 12.7955 9.19529 12.7555 9.09666C12.7402 9.17887 12.7001 9.25441 12.6406 9.31312C12.5811 9.37182 12.505 9.41085 12.4226 9.42495C12.3401 9.43905 12.2554 9.42753 12.1797 9.39196C12.1041 9.35638 12.0412 9.29846 11.9995 9.226" fill="#DA0000"/>
<path d="M13.6448 14.5093C13.0428 14.7085 12.3903 14.6923 11.799 14.4633C11.2077 14.2343 10.7144 13.8069 10.4036 13.2542C10.0928 12.7015 9.98383 12.058 10.0953 11.4338C10.2068 10.8096 10.5318 10.2436 11.0148 9.83268C10.7028 10.2941 10.5255 10.8332 10.5027 11.3896C10.4798 11.9461 10.6123 12.4979 10.8852 12.9834C11.1582 13.4688 11.561 13.8686 12.0483 14.1382C12.5357 14.4077 13.0885 14.5362 13.6448 14.5093Z" fill="#DA0000"/>
<path d="M10.145 13.984C9.74999 13.7557 9.43208 13.4146 9.23203 13.0045C9.03198 12.5944 8.95889 12.1339 9.02211 11.6821C9.08534 11.2302 9.282 10.8074 9.58693 10.468C9.89185 10.1285 10.2912 9.88783 10.7337 9.77668C10.0979 10.2548 9.67802 10.9658 9.56638 11.7534C9.45474 12.541 9.66048 13.3407 10.1384 13.9767L10.143 13.9833" fill="#DA0000"/>
<path d="M12.0005 15L12.1505 12L12.0005 9.63801C11.9095 9.76544 11.7877 9.86773 11.6465 9.93534V11.6987L11.7672 14.6787L12.0005 15Z" fill="#DA0000"/>
<path d="M12.0607 9.45001L12.0007 9.50668C11.9399 9.59408 11.8491 9.65599 11.7455 9.68057C11.6419 9.70516 11.5329 9.69069 11.4393 9.63994C11.3457 9.58918 11.2741 9.50571 11.2382 9.40548C11.2023 9.30525 11.2046 9.19531 11.2447 9.09668C11.26 9.17888 11.3001 9.25443 11.3596 9.31313C11.4191 9.37183 11.4952 9.41087 11.5776 9.42496C11.66 9.43906 11.7448 9.42755 11.8204 9.39197C11.8961 9.3564 11.959 9.29847 12.0007 9.22601" fill="#DA0000"/>
</g>
<defs>
<clipPath id="clip0_1217_240896">
<rect width="24" height="24" rx="12" fill="white"/>
</clipPath>
</defs>
</svg>
