<svg width="36" height="24" viewBox="0 0 36 24" fill="none" xmlns="http://www.w3.org/2000/svg">
<g clip-path="url(#clip0_1217_293416)">
<rect width="36" height="24" fill="#FF4E4E"/>
<path d="M-2.42578 24L38.3683 24L38.3683 0L-2.42578 0L-2.42578 24Z" fill="#003893"/>
<path d="M-2.42578 18.1335L38.3683 18.1335V12.0098L-2.42578 12.0098L-2.42578 18.1335Z" fill="white"/>
<path d="M-2.42578 16.0917L38.4251 16.0917V14.0503L-2.42578 14.0503L-2.42578 16.0917Z" fill="#CF2027"/>
<path d="M7.16966 16.0915L7.42363 16.8718H8.24633L7.58081 17.3545L7.83518 18.1352L7.16966 17.6529L6.50413 18.1352L6.75851 17.3545L6.09298 16.8718H6.91529M7.10167 12.0063L7.35604 12.7867H8.17874L7.51322 13.269L7.76759 14.0493L7.10206 13.567L6.43654 14.0493L6.69091 13.269L6.02539 12.7867H6.84769M18.7327 12.0087L18.9871 12.7875H19.8098L19.1443 13.269L19.3986 14.0477L18.7331 13.5666L18.0676 14.0477L18.322 13.269L17.6564 12.7875H18.4787" fill="#F7D116"/>
<path d="M18.6568 16.0939L18.9111 16.873H19.7338L19.0683 17.3545L19.3227 18.1336L18.6572 17.6525L17.9916 18.1336L18.2456 17.3545L17.5801 16.873H18.4024" fill="#F7D116"/>
<path d="M12.9161 7.80566L13.1705 8.58797H13.9932L13.3277 9.07152L13.582 9.85383L12.9165 9.37028L12.251 9.85383L12.5054 9.07152L11.8398 8.58797H12.6621" fill="#F7D116"/>
<path d="M12.9185 20.0635L13.1724 20.8458H13.9951L13.3296 21.3293L13.584 22.1116L12.9185 21.6281L12.2529 22.1116L12.5073 21.3293L11.8418 20.8458H12.6641" fill="#F7D116"/>
<path d="M9.32042 8.97229L9.57478 9.7546H10.3975L9.73197 10.2381L9.98634 11.0205L9.32082 10.5369L8.65529 11.0205L8.90966 10.2381L8.24414 9.7546H9.06644" fill="#F7D116"/>
<path d="M16.5066 18.8995L16.7606 19.6818H17.5833L16.9177 20.1654L17.1721 20.9477L16.5066 20.4641L15.8411 20.9477L16.0954 20.1654L15.4299 19.6818H16.2522M9.44541 18.9923L9.69978 19.7746H10.5225L9.85697 20.2582L10.1113 21.0405L9.44581 20.5569L8.78029 21.0405L9.03466 20.2582L8.36914 19.7746H9.19184M16.4022 8.88269L16.6566 9.665H17.4793L16.8138 10.1485L17.0681 10.9309L16.4026 10.4473L15.7371 10.9309L15.9915 10.1485L15.3259 9.665H16.1482" fill="#F7D116"/>
</g>
<defs>
<clipPath id="clip0_1217_293416">
<rect width="36" height="24" fill="white"/>
</clipPath>
</defs>
</svg>
