<svg width="36" height="24" viewBox="0 0 36 24" fill="none" xmlns="http://www.w3.org/2000/svg">
<g clip-path="url(#clip0_1217_285600)">
<rect width="36" height="24" fill="#FF4E4E"/>
<path d="M0 0H36V24H0V0Z" fill="black"/>
<path d="M0 0H36V16H0V0Z" fill="white"/>
<path d="M0 0H36V8H0V0Z" fill="#CE1126"/>
<path d="M18.0306 12.0961L20.7702 14.6393L20.575 10.0205C20.5462 9.32049 19.9382 9.48089 19.4962 9.73369C19.0486 10.0205 18.5378 10.0205 17.9982 9.83129C17.459 10.0209 16.9482 10.0209 16.5006 9.73369C16.0586 9.48129 15.4506 9.32049 15.4218 10.0205L15.2266 14.6393L18.0306 12.0961Z" fill="white"/>
<path d="M20.7704 14.6649C20.764 14.6649 20.758 14.6625 20.7532 14.6581L18.0308 12.1309L15.244 14.6585C15.2364 14.6653 15.2256 14.6669 15.216 14.6625C15.2068 14.6581 15.2008 14.6485 15.2012 14.6385L15.3964 10.0197C15.406 9.78288 15.482 9.62368 15.622 9.54608C15.898 9.39368 16.3372 9.61128 16.5132 9.71168C16.9244 9.97528 17.4208 10.0069 17.99 9.80728C17.9956 9.80528 18.0012 9.80528 18.0068 9.80728C18.576 10.0069 19.0724 9.97528 19.4824 9.71248C19.6596 9.61128 20.0992 9.39368 20.3748 9.54608C20.5148 9.62368 20.5908 9.78288 20.6004 10.0197L20.7956 14.6385C20.796 14.6489 20.7904 14.6585 20.7808 14.6625C20.7776 14.6641 20.7736 14.6649 20.77 14.6649H20.7704ZM15.8504 9.54368C15.7768 9.54368 15.7072 9.55728 15.6468 9.59048C15.5236 9.65888 15.4564 9.80368 15.4476 10.0217L15.2552 14.5797L18.014 12.0773C18.0236 12.0685 18.0388 12.0685 18.0484 12.0773L20.7428 14.5785L20.5504 10.0213C20.5416 9.80328 20.4744 9.65808 20.3512 9.59008C20.098 9.45008 19.6784 9.65888 19.5096 9.75528C19.0888 10.0249 18.5804 10.0597 17.9992 9.85768C17.418 10.0597 16.9096 10.0249 16.4876 9.75488C16.36 9.68208 16.086 9.54328 15.8508 9.54328L15.8504 9.54368Z" fill="#C09300"/>
<path d="M15.7389 9.85962L15.5497 14.3524L15.2285 14.6392L15.4237 10.0204C15.5153 9.95722 15.6761 9.85962 15.7393 9.85962H15.7389ZM16.1237 10.1812L15.9629 13.9392L15.6417 14.268L15.8369 9.92842C15.9001 9.99162 16.0893 10.1464 16.1237 10.1808V10.1812ZM16.4737 10.468L16.3477 13.6024L16.0893 13.8548L16.2501 10.2784C16.3129 10.3416 16.4393 10.4332 16.4737 10.4676V10.468ZM16.8525 10.6288L16.7261 13.3004L16.4737 13.5052L16.6001 10.5316C16.6633 10.5604 16.7897 10.6292 16.8525 10.6292V10.6288ZM17.2025 10.6288L17.1105 12.8552L16.8521 13.1076L16.9497 10.6576C17.0129 10.6576 17.1733 10.6576 17.2021 10.6288H17.2025Z" fill="#C09300"/>
<path d="M20.2605 9.85962L20.4497 14.3524L20.7709 14.6392L20.5757 10.0204C20.4841 9.95722 20.3233 9.85962 20.2601 9.85962H20.2605ZM19.8757 10.1812L20.0365 13.9392L20.3577 14.268L20.1625 9.92842C20.0993 9.99162 19.9101 10.1464 19.8757 10.1808V10.1812ZM19.5257 10.468L19.6517 13.6024L19.9101 13.8548L19.7493 10.2784C19.6865 10.3416 19.5601 10.4332 19.5257 10.4676V10.468ZM19.1469 10.6288L19.2733 13.3004L19.5257 13.5052L19.3993 10.5316C19.3361 10.5604 19.2097 10.6292 19.1469 10.6292V10.6288ZM18.7969 10.6288L18.8889 12.8552L19.1473 13.1076L19.0497 10.6576C18.9865 10.6576 18.8261 10.6576 18.7973 10.6288H18.7969Z" fill="#C09300"/>
<path d="M18.1251 12.6024L18.5095 14.3528L18.3831 14.4792L18.2511 14.3816L18.0331 12.8208L18.1251 14.3816L17.9987 14.5424L17.8723 14.3816L17.9643 12.8208L17.7463 14.3816L17.6143 14.4792L17.4883 14.3528L17.8727 12.6024H18.1251Z" fill="#C09300"/>
<path d="M17.9992 14.5769L17.8512 14.3885L17.912 13.3553L17.7668 14.3937L17.6124 14.5077L17.4648 14.3601L17.8556 12.5817H18.1428L18.5336 14.3601L18.386 14.5077L18.232 14.3937L18.0868 13.3553L18.1476 14.3889L17.9992 14.5773V14.5769ZM17.8948 14.3745L17.9992 14.5073L18.1036 14.3745L18.0124 12.8217L18.0552 12.8173L18.272 14.3689L18.382 14.4501L18.4868 14.3453L18.1084 12.6233H17.8904L17.512 14.3453L17.6168 14.4501L17.7268 14.3689L17.9436 12.8173L17.9864 12.8217L17.8952 14.3745H17.8948Z" fill="#C09300"/>
<path d="M17.1402 11.8336L16.377 14.5416L17.427 14.7024L17.8746 12.6656L17.1402 11.8336Z" fill="white"/>
<path d="M17.4273 14.7264C17.4273 14.7264 17.4249 14.7264 17.4237 14.7264L16.3737 14.5656C16.3669 14.5644 16.3609 14.5608 16.3573 14.5548C16.3537 14.5492 16.3525 14.542 16.3545 14.5356L17.1177 11.8272C17.1201 11.8188 17.1269 11.8124 17.1353 11.8104C17.1437 11.8084 17.1525 11.8112 17.1585 11.818L17.8929 12.65C17.8981 12.6556 17.9001 12.6636 17.8981 12.6708L17.4505 14.7076C17.4481 14.7188 17.4381 14.7264 17.4273 14.7264ZM16.4073 14.5224L17.4089 14.6756L17.8489 12.6724L17.1513 11.8824L16.4073 14.5228V14.5224Z" fill="#C09300"/>
<path d="M16.9789 13.0069C16.9789 13.0069 16.9753 13.0069 16.9737 13.0065C16.9653 13.0049 16.9585 12.9989 16.9553 12.9913L16.8633 12.7677L16.9101 12.7485L16.9877 12.9377L17.4569 12.4893L17.4921 12.5261L16.9957 13.0001C16.9909 13.0045 16.9845 13.0073 16.9781 13.0073L16.9789 13.0069Z" fill="#C09300"/>
<path d="M17.2421 14.7109L17.1333 14.3797L16.9725 14.6525C16.9673 14.6613 16.9577 14.6661 16.9477 14.6649C16.9377 14.6637 16.9293 14.6565 16.9265 14.6469L16.8033 14.2381L16.6213 14.4937L16.5801 14.4641L16.7889 14.1709L16.6281 13.5817C16.6257 13.5729 16.6281 13.5637 16.6345 13.5573L16.9613 13.2221C16.9677 13.2157 16.9769 13.2129 16.9857 13.2153C16.9945 13.2177 17.0013 13.2241 17.0037 13.2329L17.0921 13.5477L17.2949 13.2729C17.3009 13.2649 17.3113 13.2609 17.3209 13.2633C17.3309 13.2657 17.3385 13.2737 17.3401 13.2833L17.4269 13.7605L17.6457 13.4281L17.5149 12.9765L17.3549 13.1857C17.3485 13.1941 17.3377 13.1973 17.3277 13.1949C17.3177 13.1921 17.3105 13.1833 17.3093 13.1733L17.2053 12.1993L17.2557 12.1941L17.3529 13.1045L17.6297 12.7421L17.6701 12.7729L17.5525 12.9265L17.6817 13.3725L17.7425 13.2805L17.7849 13.3085L17.7005 13.4369L17.7205 13.5061L17.6717 13.5201L17.6637 13.4925L17.4397 13.8325L17.5485 14.3473L17.4989 14.3577L17.3993 13.8873L17.1949 14.2053C17.1897 14.2133 17.1801 14.2177 17.1705 14.2169C17.1609 14.2157 17.1525 14.2089 17.1497 14.1997L17.0405 13.8677L16.8421 14.1941L16.9573 14.5765L17.1173 14.3053C17.1225 14.2969 17.1317 14.2917 17.1421 14.2929C17.1521 14.2941 17.1605 14.3009 17.1633 14.3101L17.2897 14.6945L17.2413 14.7105L17.2421 14.7109ZM17.0481 13.7825C17.0481 13.7825 17.0501 13.7825 17.0509 13.7825C17.0609 13.7837 17.0689 13.7905 17.0721 13.7997L17.1817 14.1333L17.3853 13.8165L17.3005 13.3501L17.1017 13.6193C17.0961 13.6273 17.0861 13.6309 17.0769 13.6293C17.0673 13.6277 17.0597 13.6205 17.0569 13.6113L16.9665 13.2889L16.6805 13.5825L16.8273 14.1217L17.0261 13.7949C17.0309 13.7873 17.0389 13.7829 17.0477 13.7829L17.0481 13.7825Z" fill="#C09300"/>
<path d="M18.8614 11.8337L19.6246 14.5417L18.5746 14.7025L18.127 12.6657L18.8614 11.8337Z" fill="white"/>
<path d="M18.5749 14.7265C18.5641 14.7265 18.5541 14.7189 18.5517 14.7077L18.1041 12.6709C18.1025 12.6633 18.1041 12.6557 18.1093 12.6501L18.8437 11.8181C18.8493 11.8117 18.8581 11.8089 18.8669 11.8105C18.8753 11.8125 18.8821 11.8189 18.8845 11.8273L19.6477 14.5357C19.6497 14.5421 19.6485 14.5493 19.6449 14.5549C19.6413 14.5605 19.6353 14.5645 19.6285 14.5657L18.5785 14.7265C18.5785 14.7265 18.5761 14.7265 18.5749 14.7265ZM18.1533 12.6725L18.5933 14.6757L19.5949 14.5225L18.8509 11.8821L18.1533 12.6721V12.6725Z" fill="#C09300"/>
<path d="M19.0214 13.0069C19.015 13.0069 19.0086 13.0045 19.0038 12.9997L18.5078 12.5257L18.543 12.4889L19.0122 12.9373L19.0898 12.7481L19.1366 12.7673L19.0446 12.9909C19.0414 12.9985 19.0346 13.0045 19.0262 13.0061C19.0246 13.0061 19.0226 13.0065 19.021 13.0065L19.0214 13.0069Z" fill="#C09300"/>
<path d="M18.7584 14.7109L18.71 14.6949L18.8364 14.3105C18.8396 14.3009 18.848 14.2941 18.8576 14.2933C18.8676 14.2921 18.8772 14.2969 18.8824 14.3057L19.0424 14.5769L19.1576 14.1945L18.9592 13.8681L18.85 14.2001C18.8468 14.2093 18.8388 14.2161 18.8292 14.2173C18.8196 14.2185 18.81 14.2141 18.8048 14.2057L18.6004 13.8877L18.5008 14.3581L18.4512 14.3477L18.56 13.8329L18.336 13.4929L18.328 13.5205L18.2792 13.5065L18.2992 13.4373L18.2148 13.3089L18.2572 13.2809L18.318 13.3729L18.4472 12.9269L18.3296 12.7733L18.37 12.7425L18.6468 13.1049L18.744 12.1945L18.7944 12.1997L18.6904 13.1737C18.6892 13.1841 18.682 13.1925 18.672 13.1953C18.662 13.1981 18.6512 13.1945 18.6448 13.1861L18.4848 12.9769L18.354 13.4285L18.5728 13.7609L18.6596 13.2837C18.6612 13.2737 18.6688 13.2657 18.6788 13.2637C18.6888 13.2613 18.6988 13.2653 18.7048 13.2733L18.9076 13.5481L18.996 13.2333C18.9984 13.2245 19.0052 13.2177 19.014 13.2157C19.0228 13.2133 19.032 13.2157 19.0384 13.2225L19.3652 13.5577C19.3716 13.5641 19.374 13.5733 19.3716 13.5821L19.2108 14.1713L19.4196 14.4645L19.3784 14.4941L19.1964 14.2385L19.0732 14.6473C19.0704 14.6569 19.062 14.6641 19.052 14.6653C19.0416 14.6665 19.032 14.6617 19.0272 14.6529L18.8664 14.3801L18.7576 14.7113L18.7584 14.7109ZM18.6148 13.8169L18.8184 14.1337L18.928 13.8001C18.9312 13.7905 18.9392 13.7841 18.9492 13.7829C18.9592 13.7817 18.9688 13.7865 18.974 13.7949L19.1728 14.1217L19.3196 13.5825L19.0336 13.2889L18.9432 13.6113C18.9404 13.6205 18.9328 13.6277 18.9232 13.6293C18.9136 13.6313 18.904 13.6273 18.8984 13.6193L18.6996 13.3501L18.6148 13.8165V13.8169Z" fill="#C09300"/>
<path d="M17.9978 15.7524C18.7954 15.7524 19.5586 15.6892 20.0062 15.5632C20.1958 15.5288 20.1958 15.4312 20.1958 15.3048C20.3854 15.2416 20.2874 15.018 20.4194 15.018C20.2874 15.0524 20.2586 14.7944 20.0982 14.8288C20.0982 14.6048 19.8742 14.5764 19.685 14.6392C19.3062 14.7656 18.635 14.7944 17.9978 14.7944C17.361 14.7656 16.695 14.7656 16.3106 14.6392C16.1214 14.576 15.8974 14.6048 15.8974 14.8288C15.7366 14.7944 15.7078 15.0524 15.5762 15.018C15.7082 15.018 15.6106 15.2416 15.7998 15.3048C15.7998 15.4312 15.7998 15.5288 15.995 15.5632C16.437 15.6896 17.2002 15.7524 17.9978 15.7524Z" fill="white"/>
<path d="M17.9984 15.8001C17.144 15.8001 16.4104 15.7305 15.9848 15.6097C15.772 15.5713 15.7544 15.4557 15.7532 15.3369C15.6548 15.2893 15.6328 15.1981 15.6176 15.1357C15.6068 15.0901 15.6004 15.0741 15.592 15.0685C15.5832 15.0677 15.5744 15.0665 15.5648 15.0641C15.5416 15.0581 15.5268 15.0357 15.5296 15.0121C15.5328 14.9885 15.5528 14.9705 15.5768 14.9705C15.5872 14.9705 15.5968 14.9713 15.6052 14.9733C15.6276 14.9701 15.6488 14.9461 15.6836 14.9013C15.7224 14.8513 15.7736 14.7861 15.854 14.7789C15.8668 14.6937 15.9108 14.6445 15.9488 14.6173C16.0368 14.5537 16.178 14.5453 16.326 14.5945C16.6352 14.6961 17.1316 14.7145 17.6576 14.7337C17.7716 14.7381 17.8864 14.7421 18.0004 14.7473C18.8156 14.7473 19.3628 14.6973 19.6704 14.5945C19.8188 14.5453 19.9596 14.5537 20.048 14.6173C20.086 14.6445 20.13 14.6941 20.1428 14.7789C20.2232 14.7861 20.2744 14.8513 20.3132 14.9013C20.348 14.9461 20.3692 14.9697 20.3916 14.9733C20.4004 14.9717 20.4096 14.9705 20.42 14.9705C20.444 14.9705 20.464 14.9881 20.4672 15.0121C20.4704 15.0357 20.4552 15.0581 20.432 15.0641C20.4224 15.0665 20.4136 15.0681 20.4048 15.0685C20.396 15.0741 20.39 15.0901 20.3792 15.1357C20.364 15.1981 20.342 15.2889 20.2436 15.3369C20.242 15.4553 20.2252 15.5709 20.0176 15.6093C19.5868 15.7305 18.8508 15.7997 17.9984 15.7997V15.8001ZM15.686 15.0385C15.698 15.0629 15.7044 15.0901 15.7104 15.1137C15.726 15.1785 15.7396 15.2345 15.816 15.2601C15.8356 15.2665 15.8484 15.2849 15.8484 15.3053C15.8484 15.4317 15.8484 15.4893 16.004 15.5165C16.0056 15.5165 16.0072 15.5173 16.0088 15.5177C16.4196 15.6353 17.1636 15.7053 17.9984 15.7053C18.844 15.7053 19.5712 15.6369 19.994 15.5177C19.9956 15.5177 19.9968 15.5169 19.9984 15.5165C20.1488 15.4893 20.1488 15.4317 20.1488 15.3049C20.1488 15.2845 20.162 15.2661 20.1812 15.2597C20.2576 15.2345 20.2708 15.1781 20.2868 15.1133C20.2924 15.0897 20.2992 15.0621 20.3112 15.0381C20.2828 15.0165 20.2592 14.9865 20.2384 14.9597C20.1876 14.8945 20.158 14.8653 20.1092 14.8753C20.0952 14.8785 20.0804 14.8749 20.0692 14.8657C20.058 14.8565 20.0516 14.8429 20.0516 14.8289C20.0516 14.7677 20.032 14.7221 19.9928 14.6941C19.9304 14.6489 19.8184 14.6453 19.7012 14.6845C19.3836 14.7905 18.8268 14.8421 17.9988 14.8421C17.8828 14.8369 17.7684 14.8329 17.6548 14.8285C17.1224 14.8089 16.6192 14.7905 16.2968 14.6845C16.1792 14.6453 16.0672 14.6489 16.0048 14.6941C15.9656 14.7221 15.946 14.7677 15.946 14.8289C15.946 14.8433 15.9396 14.8569 15.9284 14.8657C15.9172 14.8749 15.9024 14.8785 15.8884 14.8753C15.8392 14.8649 15.81 14.8945 15.7588 14.9597C15.738 14.9865 15.7144 15.0165 15.686 15.0381V15.0385Z" fill="#C09300"/>
<path d="M16.9155 14.5416C17.1735 14.576 17.4607 14.6048 17.6847 14.576C17.8107 14.576 17.9027 14.794 17.6503 14.8284C17.4267 14.8572 17.0763 14.8284 16.8871 14.794C16.7263 14.7652 16.3763 14.7024 16.1527 14.6388C15.9291 14.5412 16.0895 14.352 16.2159 14.3808C16.4111 14.444 16.6635 14.5072 16.9163 14.5416H16.9155ZM19.0847 14.5416C18.8263 14.576 18.5395 14.6048 18.3215 14.576C18.1895 14.576 18.0975 14.794 18.3503 14.8284C18.5743 14.8572 18.9243 14.8284 19.1135 14.794C19.2743 14.7652 19.6243 14.7024 19.8479 14.6388C20.0719 14.5412 19.9111 14.352 19.7847 14.3808C19.5895 14.444 19.3371 14.5072 19.0847 14.5416Z" fill="white"/>
<path d="M18.5665 14.866C18.4881 14.866 18.4125 14.8624 18.3465 14.854C18.1697 14.83 18.1629 14.726 18.1653 14.6948C18.1705 14.6168 18.2421 14.5508 18.3213 14.5508C18.5473 14.5804 18.8457 14.548 19.0813 14.5164C19.3849 14.4752 19.6473 14.3988 19.7769 14.3568C19.8593 14.338 19.9525 14.3916 19.9785 14.4712C19.9877 14.4996 20.0069 14.5976 19.8581 14.6624C19.6241 14.7288 19.2565 14.7944 19.1177 14.8192C18.9893 14.8424 18.7685 14.866 18.5669 14.866H18.5665ZM18.3177 14.6016C18.2629 14.6016 18.2189 14.6528 18.2157 14.6984C18.2121 14.7528 18.2621 14.7912 18.3529 14.8036C18.5829 14.8332 18.9329 14.8012 19.1081 14.7692C19.2461 14.7444 19.6121 14.6792 19.8405 14.6148C19.9133 14.5828 19.9461 14.5372 19.9297 14.4872C19.9121 14.4332 19.8441 14.394 19.7897 14.406C19.6609 14.4476 19.3949 14.5252 19.0873 14.5672C18.8489 14.5992 18.5457 14.6316 18.3173 14.6016H18.3177ZM17.4329 14.866C17.2313 14.866 17.0105 14.8428 16.8821 14.8192C16.7437 14.7944 16.3753 14.7288 16.1453 14.6636C15.9933 14.5976 16.0125 14.4996 16.0217 14.4712C16.0477 14.3916 16.1409 14.338 16.2209 14.3564C16.3525 14.3988 16.6153 14.4752 16.9189 14.5164C17.1541 14.5476 17.4533 14.58 17.6813 14.5508C17.7609 14.5508 17.8297 14.616 17.8349 14.6936C17.8369 14.7252 17.8301 14.8296 17.6533 14.854C17.5873 14.8624 17.5117 14.866 17.4329 14.866ZM16.1881 14.4032C16.1397 14.4032 16.0853 14.4396 16.0697 14.4872C16.0533 14.5372 16.0861 14.5828 16.1621 14.616C16.3869 14.6792 16.7529 14.7448 16.8909 14.7692C17.0661 14.8012 17.4165 14.8328 17.6465 14.8036C17.7377 14.7912 17.7881 14.7524 17.7841 14.6972C17.7809 14.6472 17.7329 14.6016 17.6841 14.6016C17.4533 14.6316 17.1501 14.5988 16.9117 14.5668C16.6045 14.5248 16.3385 14.4476 16.2073 14.4052C16.2013 14.4036 16.1945 14.4032 16.1881 14.4032Z" fill="#C09300"/>
<path d="M16.1223 14.4157C15.9271 14.3813 15.8355 14.6049 15.8987 14.7313C15.9275 14.6681 16.0595 14.6681 16.0879 14.6049C16.1223 14.5073 16.0591 14.5073 16.1223 14.4157ZM16.8855 15.0025C16.8855 14.8765 17.0115 14.8917 17.0115 14.7657C17.0115 14.7025 16.9771 14.6049 16.9139 14.6049C16.8507 14.6049 16.7875 14.6681 16.7875 14.7313C16.7587 14.8577 16.8851 14.8765 16.8851 15.0025H16.8855ZM17.7939 14.6393C17.9831 14.6393 17.9643 14.8917 17.8727 15.0181C17.8727 14.9261 17.7119 14.8917 17.7119 14.8289C17.7119 14.7313 17.8571 14.7313 17.7939 14.6393ZM19.8751 14.4157C20.0703 14.3813 20.1619 14.6049 20.0991 14.7313C20.0703 14.6681 19.9383 14.6681 19.9099 14.6049C19.8755 14.5073 19.9387 14.5073 19.8755 14.4157H19.8751ZM19.1119 15.0025C19.1119 14.8765 18.9859 14.8917 18.9859 14.7657C18.9859 14.7025 19.0203 14.6049 19.0835 14.6049C19.1467 14.6049 19.2099 14.6681 19.2099 14.7313C19.2387 14.8577 19.1123 14.8765 19.1123 15.0025H19.1119ZM18.2035 14.6393C18.0143 14.6393 18.0331 14.8917 18.1247 15.0181C18.1247 14.9261 18.2855 14.8917 18.2855 14.8289C18.2855 14.7313 18.1403 14.7313 18.2035 14.6393Z" fill="white"/>
<path d="M18.1246 15.0437C18.1166 15.0437 18.109 15.0401 18.1042 15.0333C18.0422 14.9481 18.0058 14.7961 18.0554 14.6993C18.075 14.6605 18.117 14.6141 18.2034 14.6141C18.213 14.6141 18.2214 14.6193 18.2258 14.6277C18.2302 14.6361 18.2294 14.6461 18.2242 14.6541C18.2034 14.6841 18.2102 14.6913 18.245 14.7193C18.2726 14.7417 18.3106 14.7729 18.3106 14.8289C18.3106 14.8709 18.2718 14.8977 18.2306 14.9257C18.191 14.9529 18.1502 14.9813 18.1502 15.0181C18.1502 15.0293 18.143 15.0389 18.1326 15.0421C18.1302 15.0429 18.1274 15.0433 18.1246 15.0433V15.0437ZM18.163 14.6701C18.135 14.6781 18.1142 14.6957 18.1006 14.7221C18.0686 14.7853 18.083 14.8837 18.1186 14.9577C18.1394 14.9273 18.173 14.9041 18.2018 14.8841C18.229 14.8653 18.2598 14.8441 18.2598 14.8289C18.2598 14.7989 18.2422 14.7825 18.213 14.7585C18.1894 14.7393 18.1566 14.7125 18.163 14.6701ZM17.8726 15.0437C17.8698 15.0437 17.8674 15.0437 17.8646 15.0425C17.8542 15.0393 17.847 15.0293 17.847 15.0185C17.847 14.9817 17.8062 14.9537 17.7666 14.9261C17.7254 14.8977 17.6866 14.8709 17.6866 14.8293C17.6866 14.7729 17.7246 14.7421 17.7522 14.7193C17.787 14.6909 17.7934 14.6841 17.773 14.6541C17.7678 14.6465 17.767 14.6361 17.7714 14.6277C17.7758 14.6193 17.7846 14.6141 17.7938 14.6141C17.8802 14.6141 17.9222 14.6605 17.9418 14.6993C17.991 14.7961 17.955 14.9481 17.893 15.0333C17.8882 15.0401 17.8806 15.0437 17.8726 15.0437ZM17.8346 14.6701C17.841 14.7125 17.8082 14.7393 17.7846 14.7585C17.7554 14.7825 17.7378 14.7989 17.7378 14.8289C17.7378 14.8441 17.7686 14.8653 17.7958 14.8841C17.825 14.9041 17.8586 14.9273 17.879 14.9577C17.9146 14.8837 17.929 14.7853 17.897 14.7221C17.8834 14.6957 17.8626 14.6781 17.8346 14.6701ZM19.1122 15.0281C19.0982 15.0281 19.087 15.0169 19.087 15.0029C19.087 14.9513 19.063 14.9305 19.0326 14.9037C19.0006 14.8757 18.961 14.8409 18.961 14.7661C18.961 14.6913 19.0038 14.5801 19.0838 14.5801C19.1594 14.5801 19.2334 14.6533 19.2354 14.7289C19.2518 14.8061 19.2174 14.8509 19.1866 14.8901C19.1614 14.9225 19.1378 14.9529 19.1378 15.0029C19.1378 15.0169 19.1266 15.0281 19.1126 15.0281H19.1122ZM19.0834 14.6305C19.0414 14.6305 19.0114 14.7113 19.0114 14.7657C19.0114 14.8173 19.0354 14.8385 19.0658 14.8653C19.0802 14.8781 19.0966 14.8925 19.1098 14.9109C19.1206 14.8913 19.1338 14.8741 19.1462 14.8585C19.175 14.8217 19.1974 14.7925 19.185 14.7369C19.1846 14.7349 19.1842 14.7333 19.1842 14.7313C19.1842 14.6825 19.1322 14.6305 19.0834 14.6305ZM16.8858 15.0281C16.8718 15.0281 16.8606 15.0169 16.8606 15.0029C16.8606 14.9525 16.837 14.9221 16.8118 14.8901C16.781 14.8505 16.7466 14.8061 16.763 14.7289C16.765 14.6533 16.839 14.5801 16.9146 14.5801C16.9946 14.5801 17.0374 14.6881 17.0374 14.7661C17.0374 14.8441 16.9978 14.8757 16.9658 14.9037C16.9354 14.9305 16.9114 14.9513 16.9114 15.0029C16.9114 15.0169 16.9002 15.0281 16.8862 15.0281H16.8858ZM16.9146 14.6305C16.8654 14.6305 16.8138 14.6825 16.8138 14.7313C16.8138 14.7333 16.8138 14.7349 16.813 14.7369C16.8002 14.7925 16.823 14.8217 16.8518 14.8585C16.8642 14.8745 16.8774 14.8913 16.8882 14.9109C16.9014 14.8921 16.9178 14.8777 16.9322 14.8649C16.9626 14.8381 16.9866 14.8173 16.9866 14.7653C16.9866 14.7109 16.9562 14.6301 16.9146 14.6301V14.6305ZM20.0994 14.7569H20.099C20.0894 14.7569 20.0806 14.7509 20.0762 14.7421C20.0662 14.7201 20.0302 14.7057 19.9954 14.6921C19.9514 14.6749 19.9054 14.6569 19.887 14.6157C19.8686 14.5641 19.8734 14.5353 19.8774 14.5121C19.8814 14.4885 19.8838 14.4729 19.855 14.4305C19.8502 14.4233 19.849 14.4141 19.8526 14.4061C19.8562 14.3981 19.863 14.3925 19.8718 14.3909C19.959 14.3757 20.039 14.4069 20.091 14.4765C20.149 14.5545 20.1622 14.6637 20.1226 14.7425C20.1182 14.7509 20.1094 14.7565 20.0998 14.7565L20.0994 14.7569ZM19.9178 14.4381C19.9334 14.4713 19.9318 14.4945 19.9274 14.5205C19.9242 14.5405 19.921 14.5597 19.9342 14.5969C19.9434 14.6169 19.9794 14.6313 20.0142 14.6449C20.041 14.6553 20.0682 14.6661 20.0898 14.6821C20.1018 14.6253 20.087 14.5573 20.0498 14.5073C20.0298 14.4801 19.9874 14.4393 19.9178 14.4381ZM15.899 14.7569C15.8894 14.7569 15.8806 14.7513 15.8762 14.7429C15.8366 14.6641 15.8498 14.5545 15.9078 14.4769C15.9598 14.4069 16.0398 14.3757 16.127 14.3913C16.1354 14.3929 16.1426 14.3985 16.1462 14.4065C16.1494 14.4145 16.1486 14.4237 16.1438 14.4305C16.1146 14.4729 16.1174 14.4885 16.1214 14.5121C16.1254 14.5353 16.1302 14.5641 16.1126 14.6137C16.093 14.6569 16.0474 14.6745 16.0034 14.6921C15.9686 14.7057 15.9326 14.7197 15.9226 14.7421C15.9186 14.7509 15.9098 14.7569 15.8998 14.7569H15.8994H15.899ZM16.0806 14.4381C16.011 14.4393 15.969 14.4801 15.9486 14.5073C15.911 14.5573 15.8966 14.6257 15.9086 14.6821C15.9302 14.6661 15.9574 14.6553 15.9842 14.6449C16.019 14.6313 16.055 14.6169 16.065 14.5949C16.0774 14.5597 16.0742 14.5409 16.0706 14.5205C16.0662 14.4941 16.0646 14.4713 16.0802 14.4377L16.0806 14.4381Z" fill="#C09300"/>
<path d="M16.1875 14.4789C16.2507 14.4789 16.3483 14.5077 16.3771 14.5421L16.1875 14.4789ZM16.5027 14.5765C16.5371 14.5765 16.6635 14.6053 16.7267 14.6397L16.5027 14.5765ZM17.6507 14.7025C17.5875 14.7025 17.4615 14.7025 17.4271 14.7313L17.6507 14.7025ZM17.3007 14.7025C17.2663 14.6681 17.1399 14.6681 17.0771 14.7025H17.3007ZM19.8143 14.4789C19.7511 14.4789 19.6595 14.5077 19.6247 14.5421L19.8143 14.4789ZM19.4987 14.5765C19.4643 14.5765 19.3379 14.6053 19.2747 14.6397L19.4987 14.5765ZM18.3507 14.7025C18.4139 14.7025 18.5403 14.7025 18.5747 14.7313L18.3507 14.7025ZM18.7007 14.7025C18.7351 14.6681 18.8615 14.6681 18.9247 14.7025H18.7007Z" fill="white"/>
<path d="M17.427 14.7489C17.4198 14.7489 17.4134 14.7449 17.4106 14.7381C17.4074 14.7309 17.4094 14.7225 17.4154 14.7173C17.4514 14.6873 17.5538 14.6845 17.6478 14.6845C17.655 14.6833 17.6618 14.6869 17.6654 14.6929C17.6686 14.6985 17.669 14.7053 17.6654 14.7109C17.6622 14.7165 17.6554 14.7201 17.6494 14.7201L17.4286 14.7485C17.4286 14.7485 17.427 14.7485 17.4262 14.7485L17.427 14.7489ZM18.5746 14.7489C18.5746 14.7489 18.573 14.7489 18.5722 14.7489L18.351 14.7205C18.3462 14.7205 18.3418 14.7185 18.3386 14.7153C18.3334 14.7097 18.3318 14.7013 18.3354 14.6945C18.339 14.6877 18.3458 14.6837 18.3538 14.6845C18.4478 14.6845 18.5506 14.6873 18.5866 14.7173C18.5926 14.7225 18.5946 14.7309 18.5914 14.7381C18.5886 14.7445 18.5822 14.7489 18.575 14.7489H18.5746ZM18.9246 14.7205H18.7006C18.6906 14.7205 18.6826 14.7125 18.6826 14.7025C18.6826 14.6965 18.6854 14.6913 18.6898 14.6881C18.7346 14.6473 18.8694 14.6517 18.933 14.6869C18.9402 14.6909 18.9438 14.6989 18.9418 14.7069C18.9398 14.7149 18.9326 14.7201 18.9246 14.7201V14.7205ZM17.3006 14.7205H17.077C17.069 14.7205 17.0618 14.7149 17.0598 14.7073C17.0578 14.6997 17.0614 14.6913 17.0686 14.6873C17.1334 14.6521 17.271 14.6477 17.3134 14.6905C17.3186 14.6957 17.3202 14.7033 17.3174 14.7101C17.3146 14.7169 17.3082 14.7209 17.301 14.7209L17.3006 14.7205ZM16.7266 14.6577C16.7266 14.6577 16.7234 14.6577 16.7218 14.6569L16.5002 14.5945C16.4958 14.5937 16.4918 14.5917 16.489 14.5881C16.4842 14.5817 16.4838 14.5733 16.4882 14.5669C16.4922 14.5609 16.499 14.5581 16.5058 14.5593C16.547 14.5605 16.6714 14.5897 16.7354 14.6245C16.7434 14.6289 16.747 14.6385 16.7434 14.6469C16.7406 14.6537 16.7338 14.6581 16.727 14.6581L16.7266 14.6577ZM19.275 14.6577C19.2678 14.6577 19.2614 14.6533 19.2586 14.6465C19.255 14.6381 19.2586 14.6285 19.2666 14.6241C19.3306 14.5893 19.455 14.5601 19.4962 14.5589C19.5034 14.5577 19.5106 14.5609 19.5146 14.5673C19.5186 14.5741 19.5174 14.5833 19.5118 14.5889C19.509 14.5917 19.5054 14.5933 19.5018 14.5941L19.2802 14.6569C19.2802 14.6569 19.277 14.6577 19.2754 14.6577H19.275ZM19.625 14.5601C19.619 14.5601 19.613 14.5569 19.6098 14.5517C19.6054 14.5445 19.6066 14.5357 19.6122 14.5297C19.6526 14.4893 19.751 14.4613 19.8142 14.4613C19.823 14.4613 19.8302 14.4677 19.8318 14.4761C19.833 14.4849 19.8282 14.4929 19.8198 14.4957L19.6302 14.5589C19.6302 14.5589 19.6266 14.5597 19.6246 14.5597L19.625 14.5601ZM16.377 14.5601C16.377 14.5601 16.3734 14.5601 16.3714 14.5593L16.1834 14.4965C16.1834 14.4965 16.1794 14.4953 16.1778 14.4941C16.1702 14.4889 16.1678 14.4793 16.1718 14.4713C16.175 14.4645 16.1826 14.4605 16.1898 14.4613C16.257 14.4617 16.3586 14.4921 16.391 14.5309C16.3962 14.5369 16.3966 14.5457 16.3922 14.5525C16.389 14.5573 16.3834 14.5601 16.3774 14.5601H16.377Z" fill="#C09300"/>
<path d="M16.1332 14.9832C16.112 14.9792 16.1008 14.9624 16.106 14.9424C16.1124 14.918 16.132 14.904 16.1504 14.9108C16.162 14.9148 16.1836 14.9364 16.1836 14.9444C16.1836 14.9532 16.1724 14.9744 16.1676 14.9744C16.1656 14.9744 16.1624 14.9764 16.1604 14.9784C16.1564 14.9832 16.144 14.9856 16.1332 14.9832ZM18.3304 15.14C18.3224 15.1372 18.3096 15.1192 18.31 15.1112C18.31 15.0956 18.3328 15.0704 18.3472 15.0704C18.3544 15.0704 18.3732 15.0804 18.3804 15.0876C18.3932 15.1012 18.3904 15.1232 18.3744 15.136C18.3664 15.1424 18.3424 15.1444 18.3308 15.14H18.3304ZM18.3448 15.2392C18.328 15.2336 18.322 15.2252 18.3204 15.2068C18.3188 15.1872 18.3208 15.1844 18.3412 15.1732L18.356 15.1652L18.37 15.1712C18.3892 15.1796 18.3976 15.1888 18.3984 15.202C18.3992 15.216 18.3888 15.23 18.3728 15.2372C18.3588 15.2436 18.358 15.2436 18.3448 15.2392ZM16.3096 14.8036C16.2956 14.8032 16.2768 14.816 16.266 14.8224C16.24 14.8284 16.21 14.8444 16.1848 14.8276C16.16 14.82 16.1272 14.826 16.1236 14.8564C16.13 14.8824 16.1664 14.8972 16.1888 14.88C16.2052 14.8584 16.25 14.846 16.2552 14.8824C16.2368 14.91 16.2392 14.9468 16.224 14.976C16.2216 14.9944 16.214 15.0116 16.204 15.0272C16.1856 15.0292 16.166 15.0272 16.1504 15.0384C16.1252 15.0396 16.1 15.0524 16.0852 15.0736C16.0692 15.0968 16.0536 15.1204 16.0488 15.1484C16.0532 15.1772 16.0864 15.1856 16.1112 15.1872C16.138 15.1944 16.1644 15.204 16.1912 15.2124C16.2348 15.222 16.2752 15.238 16.3188 15.2472C16.382 15.2664 16.4488 15.2752 16.5124 15.2924C16.5192 15.2948 16.5252 15.2964 16.5324 15.2972C16.5588 15.3028 16.5728 15.274 16.5748 15.2524C16.588 15.206 16.598 15.1588 16.6112 15.1124C16.62 15.0936 16.6312 15.0516 16.5948 15.0612C16.574 15.0736 16.5568 15.092 16.5312 15.0936C16.4964 15.0956 16.516 15.1316 16.53 15.146C16.5332 15.1696 16.5256 15.1976 16.51 15.216C16.4892 15.2292 16.4632 15.2136 16.4412 15.2084C16.4184 15.2084 16.3724 15.1972 16.3936 15.166C16.4012 15.1428 16.402 15.1176 16.4112 15.0948C16.4228 15.0704 16.4248 15.0432 16.43 15.0172C16.4156 14.986 16.3908 15.0276 16.3712 15.0308C16.3576 15.04 16.3068 15.044 16.3336 15.0684C16.3568 15.086 16.3388 15.1164 16.3348 15.1384C16.3332 15.1692 16.3012 15.1764 16.276 15.1696C16.2508 15.1684 16.216 15.1496 16.2372 15.122C16.242 15.0988 16.25 15.0764 16.2548 15.0532L16.2824 14.9708C16.2868 14.946 16.2956 14.9224 16.3072 14.9008C16.308 14.8732 16.3264 14.8496 16.326 14.822C16.324 14.8084 16.318 14.8036 16.3096 14.8032V14.8036ZM16.166 15.0936C16.1692 15.0932 16.1716 15.0936 16.1748 15.0948C16.1848 15.0992 16.1852 15.1072 16.1748 15.116C16.1704 15.12 16.1652 15.1236 16.1636 15.1236C16.1448 15.122 16.1392 15.1192 16.1388 15.1124C16.138 15.1064 16.14 15.1048 16.1524 15.0988C16.1588 15.096 16.1628 15.0944 16.166 15.094V15.0936ZM16.1244 15.2944C16.1044 15.2756 16.1076 15.262 16.1372 15.2404C16.1496 15.2312 16.1572 15.232 16.1716 15.2452C16.1936 15.2652 16.1944 15.278 16.1752 15.2952C16.1656 15.3036 16.1612 15.3056 16.15 15.3056C16.1384 15.3056 16.1348 15.3044 16.1244 15.2944ZM16.2464 15.3312C16.228 15.3268 16.2164 15.3084 16.2208 15.2896C16.2208 15.2888 16.2208 15.2884 16.2212 15.2876C16.2264 15.2704 16.2292 15.2684 16.2548 15.2684C16.2832 15.2684 16.2888 15.2728 16.2892 15.298C16.2892 15.312 16.2884 15.3156 16.2812 15.322C16.2728 15.3296 16.2568 15.334 16.246 15.3312H16.2464ZM19.8108 15.3344C19.8016 15.3268 19.8 15.3236 19.7996 15.314C19.7996 15.2976 19.8088 15.2856 19.8296 15.2764C19.8568 15.264 19.868 15.2656 19.8784 15.284C19.892 15.308 19.8916 15.318 19.8752 15.334C19.866 15.3428 19.8644 15.3436 19.8436 15.3436C19.8232 15.3436 19.8208 15.3432 19.8108 15.3348V15.3344ZM16.4084 15.3804C16.394 15.3764 16.3864 15.3656 16.386 15.348C16.386 15.3348 16.3868 15.3324 16.396 15.3252C16.402 15.3204 16.4116 15.3164 16.4192 15.3152C16.43 15.3136 16.4336 15.3148 16.4424 15.3208C16.4644 15.3364 16.4692 15.3516 16.4564 15.3664C16.4428 15.3824 16.43 15.386 16.4084 15.38V15.3804ZM17.2852 15.4196C17.282 15.4156 17.2748 15.4132 17.274 15.408C17.2752 15.386 17.2764 15.3632 17.2836 15.342C17.2876 15.3212 17.284 15.2992 17.2912 15.2788C17.2988 15.2416 17.2988 15.2036 17.3072 15.1668C17.3076 15.148 17.3096 15.1288 17.3148 15.1104C17.3212 15.0816 17.3152 15.0512 17.324 15.0228C17.3232 15.012 17.3356 14.9836 17.3464 15.0004C17.362 15.0236 17.3828 15.042 17.4032 15.0612C17.4208 15.0712 17.4048 15.086 17.3924 15.0912C17.3756 15.0976 17.3716 15.116 17.3728 15.132C17.3704 15.1484 17.364 15.1644 17.3632 15.1812C17.3596 15.206 17.3604 15.2312 17.3572 15.2564C17.35 15.2808 17.3528 15.3068 17.3504 15.332C17.3504 15.348 17.3432 15.3624 17.344 15.3784C17.342 15.3948 17.3412 15.414 17.3276 15.4252C17.3144 15.432 17.2956 15.4308 17.2848 15.4196H17.2852ZM18.4732 15.0276C18.454 15.042 18.4368 15.0596 18.4196 15.0764C18.396 15.0944 18.4392 15.1048 18.4444 15.12C18.4508 15.1436 18.4504 15.1684 18.452 15.1924C18.4592 15.2144 18.4624 15.238 18.4608 15.2612C18.4588 15.286 18.4264 15.2808 18.412 15.2948C18.3924 15.3032 18.3844 15.3224 18.3696 15.336C18.3596 15.3552 18.3572 15.3792 18.356 15.4012C18.3576 15.4192 18.344 15.4392 18.356 15.4548C18.3576 15.4572 18.3596 15.46 18.3608 15.4624C18.3648 15.4684 18.3744 15.4636 18.3808 15.4648C18.4008 15.4636 18.422 15.4668 18.4408 15.4584C18.4892 15.45 18.538 15.4492 18.5872 15.4472C18.6172 15.448 18.646 15.4376 18.676 15.4384C18.6996 15.4436 18.71 15.418 18.7096 15.3996C18.6964 15.3736 18.7076 15.3424 18.6972 15.316C18.688 15.2892 18.6916 15.2588 18.6872 15.2312C18.6868 15.2092 18.6588 15.2012 18.6448 15.2176C18.6312 15.2312 18.6092 15.234 18.5984 15.2512C18.5864 15.2752 18.6236 15.2752 18.6296 15.2936C18.6368 15.312 18.6344 15.3328 18.636 15.3524C18.6404 15.376 18.6148 15.3776 18.5984 15.38C18.5768 15.388 18.5468 15.3936 18.5348 15.3676C18.5272 15.3484 18.5284 15.328 18.526 15.3076C18.5256 15.272 18.5168 15.2368 18.5148 15.2012C18.5128 15.1572 18.5052 15.1136 18.5024 15.07C18.502 15.0516 18.4996 15.022 18.4736 15.0276H18.4732ZM18.4484 15.3576L18.4608 15.3588L18.462 15.374L18.4632 15.3888L18.4468 15.394C18.4416 15.3956 18.436 15.3968 18.4304 15.3976C18.428 15.396 18.4252 15.3944 18.4228 15.3924C18.414 15.386 18.4164 15.3772 18.4276 15.3648C18.434 15.358 18.4372 15.3568 18.4476 15.3572L18.4484 15.3576ZM17.2496 14.9864C17.2344 14.9916 17.2152 15.014 17.1996 15.014C17.1644 15.0164 17.1692 15.0508 17.1944 15.0628C17.1976 15.0732 17.1944 15.0864 17.1956 15.098C17.2004 15.1296 17.1804 15.1548 17.1844 15.1868C17.1828 15.2216 17.172 15.2556 17.1708 15.2904C17.1608 15.3264 17.1608 15.3636 17.1544 15.4004C17.1504 15.4332 17.1264 15.4216 17.1056 15.4128C17.1056 15.3984 17.1044 15.3844 17.1044 15.3704C17.1132 15.3376 17.0868 15.328 17.0608 15.324C17.0332 15.3264 17.02 15.3032 17.0256 15.2788C17.0372 15.2648 17.0672 15.2688 17.0856 15.2664C17.1248 15.2744 17.1232 15.222 17.1032 15.204C17.0896 15.1784 17.0552 15.1676 17.0456 15.1416C17.0496 15.1068 17.0264 15.0724 16.998 15.0552C16.9544 15.052 16.9216 15.0896 16.9056 15.1264C16.8876 15.1316 16.8696 15.1372 16.852 15.144C16.8236 15.1512 16.7832 15.2004 16.822 15.2188C16.8436 15.2248 16.91 15.24 16.8808 15.27C16.8644 15.2984 16.8328 15.2988 16.8044 15.2912C16.7756 15.2912 16.7432 15.2772 16.7444 15.2436C16.7384 15.2136 16.7396 15.1812 16.7256 15.1536C16.7196 15.12 16.6816 15.128 16.6792 15.1584C16.65 15.1796 16.6536 15.2144 16.6744 15.2396C16.6872 15.2688 16.6744 15.3028 16.662 15.3296C16.6544 15.3648 16.6156 15.3656 16.5884 15.3772C16.5748 15.3824 16.5232 15.374 16.542 15.4036C16.572 15.4144 16.608 15.4236 16.6396 15.416C16.6724 15.412 16.7012 15.3896 16.7172 15.3612C16.7392 15.3388 16.7772 15.3504 16.806 15.35C16.8368 15.35 16.8684 15.3716 16.8984 15.3576C16.9072 15.3352 16.9472 15.2976 16.9596 15.3364C16.9576 15.3708 16.988 15.3896 17.0196 15.3852C17.054 15.3832 17.0412 15.4096 17.0408 15.43C17.0432 15.4672 17.0672 15.4868 17.0984 15.5024C17.1092 15.5052 17.12 15.5044 17.1308 15.5024C17.1608 15.4928 17.1928 15.4796 17.202 15.446C17.214 15.4188 17.2144 15.388 17.2232 15.3596C17.2304 15.3144 17.2396 15.2692 17.2408 15.2232C17.252 15.1816 17.2488 15.1376 17.2572 15.0956C17.2624 15.0644 17.2664 15.0332 17.2696 15.002C17.266 14.9852 17.2588 14.9824 17.2496 14.9856V14.9864ZM16.9784 15.1528C16.9844 15.1536 16.988 15.1608 16.9884 15.174C16.9892 15.1884 16.9968 15.2004 17.006 15.2028C17.0132 15.2048 17.0128 15.2124 17.0048 15.218C17 15.2212 16.992 15.2232 16.9772 15.2228C16.954 15.2228 16.9396 15.2168 16.9272 15.204L16.9196 15.1964L16.9308 15.1888C16.9388 15.1824 16.946 15.176 16.9532 15.1688C16.9644 15.1572 16.972 15.152 16.978 15.1524L16.9784 15.1528ZM19.6196 14.8376C19.5968 14.8388 19.574 14.8424 19.5532 14.8476C19.5116 14.8452 19.4908 14.8888 19.5308 14.91C19.5548 14.9712 19.5924 14.8972 19.6308 14.9024C19.6884 14.9136 19.6932 14.9756 19.702 15.0224C19.7052 15.0688 19.7184 15.1136 19.732 15.1576C19.7704 15.2004 19.7032 15.2272 19.6744 15.194C19.65 15.1676 19.5976 15.1348 19.568 15.1716C19.532 15.1868 19.5304 15.2352 19.5004 15.2492C19.452 15.264 19.446 15.2044 19.4204 15.1792C19.3968 15.1464 19.352 15.1432 19.3152 15.1316C19.298 15.0968 19.3068 15.0376 19.2716 15.014C19.2416 15.026 19.1872 15.082 19.2328 15.1076C19.2776 15.146 19.2132 15.1636 19.1928 15.19C19.1636 15.2224 19.1588 15.2676 19.154 15.3088C19.1036 15.3368 19.094 15.2772 19.0876 15.24C19.0836 15.1956 19.046 15.2084 19.02 15.2248C18.982 15.2404 18.9628 15.2764 18.9364 15.3048C18.9332 15.3308 18.938 15.3592 18.9376 15.386C18.9464 15.4184 18.9856 15.4032 19.01 15.4008C19.0492 15.3844 19.0652 15.426 19.0336 15.4496C19.0124 15.4768 18.9448 15.4624 18.9512 15.506C18.9728 15.5084 18.9956 15.5076 19.0176 15.506C19.0612 15.494 19.108 15.4632 19.1124 15.4148C19.118 15.3724 19.1792 15.38 19.2124 15.3712C19.254 15.3592 19.304 15.356 19.3136 15.4088C19.342 15.4384 19.4036 15.472 19.4348 15.4312C19.4664 15.4116 19.482 15.3776 19.4796 15.3412C19.4732 15.31 19.5304 15.3088 19.5444 15.326C19.5652 15.3604 19.6304 15.35 19.662 15.3312C19.6956 15.3064 19.7028 15.2628 19.7508 15.2624C19.822 15.2412 19.896 15.2288 19.9656 15.2024C20.022 15.19 19.9572 15.1544 19.9432 15.1336C19.9004 15.1124 19.8628 15.1992 19.8144 15.156C19.7768 15.1272 19.7796 15.0728 19.7656 15.0308C19.756 14.9764 19.7584 14.914 19.7192 14.8708C19.6924 14.8424 19.6556 14.8352 19.618 14.8372L19.6196 14.8376ZM19.3472 15.2164C19.3524 15.2164 19.358 15.2188 19.3672 15.224C19.3848 15.2336 19.3972 15.2496 19.3972 15.2628C19.3972 15.2712 19.3952 15.272 19.3824 15.278C19.3744 15.2816 19.3656 15.2856 19.3624 15.2856C19.3552 15.2856 19.3376 15.2712 19.3376 15.2656C19.3376 15.2632 19.3352 15.254 19.3324 15.2468C19.3276 15.234 19.3284 15.234 19.3348 15.2256C19.3388 15.22 19.3424 15.2168 19.3472 15.2168V15.2164ZM19.6084 15.23C19.6232 15.2292 19.632 15.2336 19.6384 15.2452C19.6456 15.2584 19.6408 15.2684 19.622 15.2764C19.614 15.28 19.6056 15.2828 19.6044 15.2828C19.6032 15.2828 19.5964 15.2788 19.5892 15.274C19.5784 15.2668 19.5768 15.2636 19.5768 15.2552C19.5768 15.2424 19.5908 15.2312 19.608 15.23H19.6084ZM19.2508 15.2336C19.2552 15.2328 19.2592 15.2352 19.2644 15.24C19.2716 15.246 19.274 15.2512 19.2756 15.2636C19.2768 15.2724 19.2768 15.2836 19.2756 15.2884C19.2736 15.2976 19.2736 15.2972 19.2532 15.2972C19.2276 15.2972 19.2252 15.2948 19.2256 15.2708C19.2256 15.2556 19.226 15.2516 19.2344 15.2432C19.2408 15.2368 19.2464 15.234 19.2508 15.2332V15.2336ZM19.0308 15.2912C19.0388 15.2932 19.0464 15.2992 19.0484 15.3088C19.0512 15.3216 19.0484 15.3272 19.0384 15.3324C19.0296 15.3368 19.0092 15.3384 19.0032 15.3348C19.0012 15.3336 18.9976 15.3308 18.9956 15.3272C18.9928 15.3224 18.9932 15.32 18.9968 15.3172C18.9992 15.3152 19.002 15.3124 19.0016 15.3108C19.0012 15.3092 19.0044 15.3044 19.008 15.2996C19.014 15.292 19.0224 15.2888 19.0304 15.2908L19.0308 15.2912ZM19.4008 15.3388C19.408 15.3388 19.414 15.3412 19.4184 15.3452C19.426 15.3516 19.4256 15.3612 19.4172 15.3676C19.4116 15.3716 19.3824 15.3712 19.3724 15.3676C19.368 15.366 19.366 15.3636 19.366 15.3588C19.366 15.3532 19.3676 15.3496 19.3772 15.3452C19.3852 15.3412 19.394 15.3388 19.4008 15.3388ZM18.714 15.5316C18.71 15.5292 18.7044 15.5268 18.7104 15.5228C18.7172 15.5108 18.7312 15.5064 18.7432 15.502C18.7652 15.4924 18.784 15.4764 18.798 15.4572C18.8 15.444 18.8148 15.4368 18.8148 15.4228C18.8148 15.4036 18.816 15.3844 18.8116 15.3656C18.8064 15.3484 18.7936 15.3356 18.7784 15.3268C18.768 15.3188 18.7516 15.3164 18.7476 15.3024C18.7456 15.2888 18.7576 15.2784 18.762 15.266C18.7708 15.2492 18.7784 15.2316 18.788 15.2148C18.7984 15.2032 18.8144 15.214 18.8196 15.2252C18.8272 15.2364 18.834 15.2484 18.8376 15.2612C18.8496 15.2744 18.8604 15.29 18.8648 15.3076C18.8708 15.32 18.88 15.3316 18.8796 15.3464C18.8796 15.3632 18.8888 15.378 18.8884 15.3948C18.8888 15.4172 18.8888 15.4404 18.8808 15.4616C18.8752 15.4732 18.864 15.4804 18.8564 15.4908C18.8436 15.5028 18.8296 15.514 18.8132 15.5204C18.8016 15.524 18.7948 15.5376 18.7804 15.534C18.76 15.534 18.7388 15.5372 18.7184 15.534C18.7196 15.536 18.712 15.5304 18.7136 15.5316H18.714ZM18.44 15.5496C18.4304 15.5396 18.428 15.5352 18.428 15.5256C18.428 15.5156 18.4296 15.5116 18.4392 15.502C18.4568 15.4844 18.4652 15.484 18.4956 15.4992C18.5244 15.514 18.5344 15.5152 18.5368 15.5048C18.5392 15.4948 18.556 15.4856 18.5716 15.4856C18.5816 15.4856 18.5872 15.4876 18.5952 15.4936C18.6052 15.5016 18.6056 15.5028 18.606 15.5208C18.606 15.5392 18.606 15.54 18.5944 15.5504C18.5832 15.56 18.5816 15.5608 18.5676 15.5592C18.55 15.5576 18.5396 15.5496 18.5368 15.5356C18.5348 15.5256 18.5312 15.5232 18.5284 15.53C18.5276 15.532 18.5232 15.5348 18.5188 15.536C18.5108 15.538 18.4968 15.5468 18.4872 15.556C18.4836 15.5596 18.4768 15.5612 18.4664 15.5612C18.452 15.5612 18.45 15.5604 18.4392 15.5492L18.44 15.5496ZM17.6472 15.1936C17.6208 15.1936 17.592 15.2164 17.5884 15.2424C17.5944 15.2724 17.6196 15.302 17.6036 15.3336C17.6148 15.374 17.5732 15.3896 17.5448 15.366C17.5276 15.3272 17.5192 15.2844 17.4936 15.2496C17.4616 15.2404 17.4476 15.292 17.4248 15.3096C17.436 15.34 17.4688 15.3668 17.4724 15.4044C17.4804 15.4408 17.458 15.4816 17.426 15.5008C17.3984 15.5268 17.3608 15.5176 17.3272 15.5232C17.2864 15.5472 17.3572 15.556 17.376 15.5568C17.418 15.5612 17.4616 15.5556 17.4924 15.5244C17.5232 15.5096 17.5208 15.4564 17.5576 15.4508C17.6212 15.448 17.684 15.4604 17.7476 15.462C17.7816 15.47 17.834 15.458 17.8576 15.4832C17.8576 15.5276 17.8952 15.5548 17.9312 15.572C17.9512 15.5776 17.972 15.5528 17.9924 15.5484C18.0312 15.536 18.0192 15.4884 18.0424 15.4696C18.1084 15.466 18.1752 15.4668 18.2412 15.466C18.2536 15.466 18.2576 15.4484 18.2664 15.4412C18.2648 15.4156 18.264 15.3904 18.26 15.3648C18.2472 15.3324 18.262 15.2912 18.2388 15.2636C18.2056 15.2544 18.1772 15.2848 18.144 15.2872C18.1068 15.3036 18.0756 15.338 18.074 15.3796C18.052 15.4156 18.0168 15.3732 18.0288 15.3432C18.0276 15.33 18.0316 15.3152 18.0276 15.3032C18.0072 15.2788 17.972 15.2868 17.944 15.2832C17.9032 15.2848 17.8636 15.276 17.8228 15.2768C17.7872 15.274 17.75 15.28 17.7152 15.2704C17.674 15.2692 17.6796 15.2288 17.6728 15.2004C17.6656 15.1948 17.6568 15.1928 17.648 15.1928L17.6472 15.1936ZM17.7272 15.3412C17.7408 15.3412 17.754 15.3432 17.7672 15.3448C17.7844 15.3476 17.8028 15.3388 17.8196 15.3448C17.8588 15.3516 17.8976 15.35 17.9372 15.3536C17.9476 15.3536 17.9552 15.3608 17.962 15.3672V15.4496C17.9608 15.46 17.9652 15.4736 17.9556 15.4808C17.9528 15.4828 17.9492 15.4852 17.9456 15.4856C17.9348 15.4828 17.9232 15.4756 17.918 15.4656C17.9164 15.4512 17.9188 15.4376 17.9192 15.4232C17.9192 15.4196 17.9208 15.4136 17.9192 15.4108C17.9108 15.4048 17.9012 15.4008 17.8904 15.4008C17.8564 15.3996 17.8232 15.3972 17.7892 15.396C17.7608 15.3944 17.732 15.3984 17.7044 15.3912C17.6936 15.3872 17.6796 15.3888 17.6732 15.3776C17.664 15.3668 17.6772 15.3536 17.6868 15.3488C17.6996 15.3432 17.7132 15.3412 17.7268 15.3412H17.7272ZM18.1784 15.3512C18.1848 15.3512 18.1868 15.3532 18.1896 15.3648L18.1944 15.3848C18.196 15.3896 18.1936 15.3912 18.1868 15.3936C18.1672 15.4012 18.1472 15.4004 18.1404 15.3912C18.1372 15.3872 18.1408 15.374 18.1468 15.3688C18.1584 15.3584 18.1712 15.3512 18.178 15.3512H18.1784Z" fill="#C09300"/>
<path d="M18.4911 10.1237C18.5179 10.1253 18.4551 9.98086 18.4551 9.98086C18.5259 10.0529 18.7923 10.0705 18.7923 10.0705C18.6323 9.99966 18.4723 9.46646 18.4911 9.04166C18.5083 8.61526 18.4299 8.44726 18.3671 8.38446C18.2871 8.30446 18.0299 8.23406 17.8607 8.22446C17.7651 8.21966 17.7807 8.29646 17.7807 8.29646C17.6035 8.25086 17.4263 8.23366 17.3463 8.28686C17.2711 8.33726 17.2555 8.58806 17.3103 8.54406C17.4435 8.43726 17.5595 8.53446 17.6395 8.65086C17.7099 8.75286 17.7055 9.04126 17.6035 9.37846C17.4967 9.73286 17.2051 10.0873 17.2051 10.0873C17.3635 10.0873 17.5863 9.94606 17.5863 9.94606L17.5331 10.1673C17.7011 10.0873 17.8343 9.96326 17.8343 9.96326L17.9943 10.1313C18.0475 10.0609 18.1543 9.96326 18.1543 9.96326C18.1543 9.96326 18.2875 10.1045 18.4915 10.1233L18.4911 10.1237Z" fill="white"/>
<path d="M17.4979 10.2117L17.5499 9.99648C17.4735 10.0389 17.3247 10.1121 17.2059 10.1121H17.1543L17.1871 10.0721C17.1899 10.0685 17.4771 9.71728 17.5811 9.37168C17.6867 9.02288 17.6807 8.75208 17.6203 8.66488C17.5627 8.58128 17.5023 8.53248 17.4455 8.52408C17.4055 8.51808 17.3667 8.53088 17.3263 8.56328C17.3087 8.57728 17.2931 8.57408 17.2855 8.57088C17.2679 8.56328 17.2579 8.54368 17.2551 8.51048C17.2491 8.44568 17.2703 8.30888 17.3335 8.26688C17.4299 8.20248 17.6295 8.23488 17.7579 8.26568C17.7603 8.25408 17.7651 8.24128 17.7751 8.22968C17.7935 8.20808 17.8231 8.19808 17.8627 8.20008C18.0407 8.21008 18.3015 8.28368 18.3851 8.36728C18.4547 8.43688 18.5335 8.61008 18.5159 9.04248C18.4967 9.47848 18.6639 9.98688 18.8027 10.0481L18.7911 10.0945C18.7687 10.0929 18.6083 10.0813 18.5047 10.0389C18.5311 10.1141 18.5211 10.1285 18.5163 10.1353C18.5103 10.1437 18.5007 10.1485 18.4903 10.1477H18.4895C18.3195 10.1321 18.1979 10.0365 18.1543 9.99688C18.1227 10.0269 18.0531 10.0945 18.0139 10.1457L17.9967 10.1685L17.8331 9.99688C17.7907 10.0337 17.6791 10.1245 17.5439 10.1889L17.4979 10.2109V10.2117ZM17.6247 9.89368L17.5695 10.1217C17.7095 10.0457 17.8167 9.94688 17.8179 9.94568L17.8355 9.92928L17.9927 10.0941C18.0491 10.0265 18.1339 9.94888 18.1379 9.94528L18.1555 9.92928L18.1719 9.94648C18.1719 9.94648 18.2919 10.0709 18.4711 10.0965C18.4651 10.0717 18.4487 10.0273 18.4327 9.99048L18.4723 9.96368C18.5107 10.0029 18.6259 10.0261 18.7135 10.0377C18.5691 9.87248 18.4499 9.41688 18.4667 9.04008C18.4843 8.60368 18.4011 8.45248 18.3499 8.40128C18.2751 8.32648 18.0247 8.25768 17.8591 8.24848C17.8431 8.24768 17.8219 8.24928 17.8115 8.26088C17.8011 8.27248 17.8043 8.29128 17.8043 8.29168L17.8111 8.32928L17.7743 8.32008C17.5783 8.26968 17.4231 8.26488 17.3595 8.30728C17.3383 8.32128 17.3187 8.36448 17.3083 8.41968C17.2999 8.46408 17.3007 8.50008 17.3039 8.51808C17.3523 8.48248 17.4015 8.46848 17.4515 8.47568C17.5231 8.48608 17.5927 8.54048 17.6595 8.63688C17.7387 8.75128 17.7255 9.05928 17.6267 9.38528C17.5411 9.67048 17.3407 9.95088 17.2591 10.0577C17.4015 10.0329 17.5711 9.92648 17.5731 9.92528L17.6239 9.89328L17.6247 9.89368Z" fill="#C09300"/>
<path d="M18.4348 9.99571C18.282 9.77131 18.2452 9.17531 18.244 9.15011L18.2948 9.14731C18.2948 9.15331 18.3324 9.75451 18.4772 9.96731L18.4352 9.99571H18.4348ZM17.8572 9.97611L17.8124 9.95171C17.9244 9.74571 17.9596 9.09091 17.96 9.08411L18.0108 9.08691C18.0092 9.11411 17.9748 9.76011 17.8572 9.97611ZM18.1308 9.97251C18.086 9.84611 18.0856 9.14251 18.0856 9.11251H18.1364C18.1364 9.31371 18.144 9.85731 18.1788 9.95571L18.1308 9.97251ZM17.606 9.96371L17.5684 9.92971C17.7292 9.75091 17.8184 9.10611 17.8192 9.09971L17.8696 9.10651C17.866 9.13371 17.7772 9.77371 17.606 9.96371Z" fill="#C09300"/>
<path d="M17.6818 8.78443C17.6738 8.72643 17.6598 8.68083 17.6394 8.65123C17.5594 8.53523 17.4434 8.43803 17.3102 8.54443C17.3102 8.54443 17.3558 8.40323 17.453 8.39843C17.5282 8.39363 17.699 8.45483 17.8498 8.71203C17.8498 8.71203 17.7386 8.68683 17.7118 8.71043C17.6614 8.75443 17.6818 8.78403 17.6818 8.78403V8.78443ZM17.2962 8.37043C17.307 8.33443 17.3246 8.30123 17.3466 8.28723C17.4266 8.23403 17.6038 8.25123 17.781 8.29683C17.781 8.29683 17.7654 8.22003 17.861 8.22483C18.0302 8.23443 18.2874 8.30483 18.3674 8.38483C18.3862 8.40523 18.4082 8.43523 18.427 8.48043H18.4238C18.3846 8.42563 18.2734 8.42883 18.2466 8.43203C18.2042 8.43683 18.1774 8.43523 18.121 8.44923C18.0942 8.45563 18.0534 8.46323 18.0318 8.48043C18.0146 8.49443 18.0006 8.54643 17.9738 8.54643C17.9314 8.54643 17.9346 8.53563 17.9234 8.52283C17.9094 8.50563 17.9014 8.48043 17.8874 8.48203C17.8434 8.49003 17.773 8.45523 17.6834 8.38483C17.5938 8.31443 17.5594 8.29683 17.4434 8.30483C17.329 8.31443 17.293 8.37843 17.293 8.37843L17.2962 8.37043Z" fill="#C09300"/>
<path d="M17.6767 8.78844C17.6767 8.78844 17.6695 8.77764 17.6719 8.76124C17.6639 8.71524 17.6511 8.67964 17.6343 8.65524C17.5731 8.56644 17.5103 8.51644 17.4479 8.50724C17.4035 8.50084 17.3591 8.51524 17.3155 8.55004L17.2971 8.56484L17.3043 8.54244C17.3063 8.53644 17.3523 8.39644 17.4535 8.39164C17.5307 8.38604 17.7039 8.44804 17.8567 8.70884L17.8651 8.72284L17.8491 8.71924C17.8075 8.71004 17.7347 8.70084 17.7175 8.71604C17.6963 8.73444 17.6887 8.75004 17.6867 8.76124C17.6879 8.76844 17.6891 8.77604 17.6903 8.78364L17.6775 8.78844H17.6767ZM17.4271 8.49164C17.4347 8.49164 17.4423 8.49204 17.4499 8.49324C17.5163 8.50324 17.5823 8.55484 17.6459 8.64724C17.6607 8.66884 17.6727 8.69884 17.6811 8.73604C17.6867 8.72684 17.6951 8.71644 17.7079 8.70564C17.7311 8.68524 17.8031 8.69604 17.8363 8.70244C17.6519 8.39724 17.4623 8.40524 17.4543 8.40604C17.3859 8.40924 17.3439 8.48564 17.3267 8.52484C17.3599 8.50284 17.3935 8.49204 17.4271 8.49204V8.49164ZM17.9747 8.55324C17.9395 8.55324 17.9319 8.54604 17.9239 8.53364C17.9227 8.53164 17.9211 8.52924 17.9191 8.52724C17.9139 8.52084 17.9099 8.51404 17.9059 8.50804C17.8999 8.49844 17.8939 8.48924 17.8891 8.48884C17.8439 8.49724 17.7731 8.46364 17.6799 8.39004C17.5907 8.31964 17.5587 8.30364 17.4447 8.31164C17.3359 8.32044 17.3003 8.38124 17.2999 8.38164L17.2871 8.37564L17.2903 8.36804C17.2979 8.34364 17.3147 8.29964 17.3435 8.28124C17.4395 8.21724 17.6499 8.25604 17.7739 8.28724C17.7739 8.27564 17.7755 8.25644 17.7887 8.24084C17.8035 8.22364 17.8283 8.21564 17.8623 8.21724C18.0367 8.22684 18.2927 8.29844 18.3735 8.37924C18.3987 8.40644 18.4187 8.43844 18.4347 8.47724L18.4387 8.48684H18.4215L18.4195 8.48404C18.3843 8.43484 18.2819 8.43444 18.2487 8.43844C18.2371 8.43964 18.2263 8.44044 18.2159 8.44124C18.1895 8.44324 18.1643 8.44524 18.1239 8.45524L18.1143 8.45724C18.0895 8.46284 18.0555 8.47084 18.0371 8.48524C18.0319 8.48964 18.0263 8.49924 18.0203 8.50964C18.0087 8.52964 17.9955 8.55244 17.9747 8.55244V8.55324ZM17.8895 8.47484C17.9023 8.47484 17.9103 8.48724 17.9183 8.50084C17.9219 8.50684 17.9259 8.51324 17.9299 8.51844C17.9323 8.52084 17.9339 8.52364 17.9355 8.52604C17.9407 8.53404 17.9443 8.53924 17.9743 8.53924C17.9871 8.53924 17.9979 8.52004 18.0075 8.50324C18.0143 8.49164 18.0203 8.48084 18.0279 8.47484C18.0487 8.45844 18.0847 8.45004 18.1107 8.44404L18.1199 8.44204C18.1615 8.43164 18.1871 8.42964 18.2139 8.42764C18.2239 8.42684 18.2343 8.42604 18.2459 8.42484C18.2471 8.42484 18.3495 8.41444 18.4071 8.45444C18.3943 8.42964 18.3795 8.40844 18.3623 8.38964C18.2851 8.31244 18.0291 8.24124 17.8607 8.23204C17.8311 8.23084 17.8107 8.23684 17.7987 8.25084C17.7827 8.26924 17.7879 8.29564 17.7879 8.29564L17.7899 8.30684L17.7791 8.30404C17.5751 8.25164 17.4191 8.24804 17.3503 8.29364C17.3363 8.30244 17.3231 8.32124 17.3127 8.34644C17.3359 8.32684 17.3767 8.30364 17.4431 8.29804C17.5607 8.29044 17.5967 8.30764 17.6879 8.37964C17.7767 8.44964 17.8451 8.48284 17.8863 8.47564C17.8871 8.47564 17.8879 8.47564 17.8887 8.47564L17.8895 8.47484Z" fill="#C09300"/>
<path d="M17.9515 8.47453C17.9776 8.47453 17.9987 8.45339 17.9987 8.42733C17.9987 8.40126 17.9776 8.38013 17.9515 8.38013C17.9254 8.38013 17.9043 8.40126 17.9043 8.42733C17.9043 8.45339 17.9254 8.47453 17.9515 8.47453Z" fill="white"/>
<path d="M17.9992 13.0893C19.3048 12.0849 19.1928 10.6141 19.1928 10.6141C19.1584 10.6209 19.1256 10.6245 19.0912 10.6245C18.8172 10.6245 18.164 10.4677 18.0116 10.2689C17.8484 10.4489 17.1808 10.6245 16.9088 10.6245C16.8744 10.6245 16.84 10.6209 16.8072 10.6141C16.8072 10.6141 16.6936 12.0853 17.9992 13.0893Z" fill="white"/>
<path d="M17.9982 13.1185L17.9842 13.1077C16.6838 12.1073 16.7822 10.6273 16.7834 10.6125L16.7854 10.5865L16.811 10.5917C16.8422 10.5981 16.8746 10.6017 16.9078 10.6017C17.1838 10.6017 17.8374 10.4261 17.9938 10.2537L18.0122 10.2333L18.029 10.2553C18.1742 10.4449 18.8214 10.6021 19.0902 10.6021C19.1226 10.6021 19.1534 10.5989 19.1874 10.5921L19.213 10.5869L19.215 10.6129C19.2162 10.6277 19.313 12.1081 18.0122 13.1081L17.9982 13.1189V13.1185ZM16.8278 10.6413C16.8214 10.8397 16.8254 12.1481 17.9982 13.0601C19.171 12.1477 19.1766 10.8393 19.1702 10.6409C19.1434 10.6449 19.1174 10.6469 19.0902 10.6469C18.8262 10.6469 18.1938 10.4993 18.0094 10.3021C17.8082 10.4893 17.1598 10.6469 16.9078 10.6469C16.8806 10.6469 16.8538 10.6449 16.8278 10.6409V10.6413Z" fill="#C09300"/>
<path d="M17.9994 12.9769L17.9878 12.9677C17.5042 12.5825 17.1622 12.0653 16.9986 11.4721C16.945 11.2777 16.9114 11.0805 16.8986 10.8865C16.8958 10.8441 16.8922 10.7805 16.8926 10.7193V10.6977L16.9142 10.7017C16.9258 10.7037 16.9358 10.7049 16.945 10.7049C17.1906 10.7049 17.7718 10.5609 17.997 10.3905L18.0086 10.3817L18.0198 10.3913C18.243 10.5829 18.825 10.7053 19.055 10.7053L19.107 10.7037V10.7225C19.107 10.7673 19.1034 10.8441 19.101 10.8857C19.0882 11.0801 19.0542 11.2769 19.0006 11.4717C18.8366 12.0657 18.4942 12.5833 18.0102 12.9685L17.9986 12.9777L17.9994 12.9769ZM16.9294 10.7405C16.9294 10.7937 16.9326 10.8469 16.9354 10.8841C16.9482 11.0757 16.9814 11.2705 17.0342 11.4625C17.197 12.0521 17.5214 12.5457 17.9994 12.9301C18.4778 12.5453 18.8026 12.0513 18.9658 11.4613C19.019 11.2693 19.0522 11.0745 19.065 10.8829C19.067 10.8473 19.0702 10.7853 19.0706 10.7409H19.0558C18.8182 10.7413 18.2474 10.6225 18.0074 10.4281C17.7658 10.6017 17.1974 10.7413 16.945 10.7413C16.9398 10.7413 16.9346 10.7413 16.9294 10.7405Z" fill="#C09300"/>
<mask id="mask0_1217_285600" style="mask-type:luminance" maskUnits="userSpaceOnUse" x="16" y="10" width="4" height="3">
<path d="M19.0782 10.7297L19.0446 10.7309C18.799 10.7309 18.2286 10.6049 18.009 10.4161C17.7786 10.5905 17.199 10.7309 16.9574 10.7309C16.9462 10.7309 16.935 10.7297 16.9238 10.7273L16.9294 10.8913C16.9422 11.0853 16.9762 11.2797 17.0278 11.4673C17.1902 12.0569 17.523 12.5577 18.0002 12.9377C18.4778 12.5573 18.811 12.0561 18.9738 11.4661C19.0262 11.2781 19.059 11.0849 19.0726 10.8901C19.0758 10.8365 19.0778 10.7833 19.0786 10.7297H19.0782Z" fill="white"/>
</mask>
<g mask="url(#mask0_1217_285600)">
<path fill-rule="evenodd" clip-rule="evenodd" d="M16.9043 10.3905H17.6347V12.9629H16.9043V10.3905Z" fill="#C09300"/>
<path fill-rule="evenodd" clip-rule="evenodd" d="M17.6348 10.3905H18.3652V12.9629H17.6348V10.3905Z" fill="white"/>
<path fill-rule="evenodd" clip-rule="evenodd" d="M18.3652 10.3905H19.0956V12.9629H18.3652V10.3905Z" fill="#C09300"/>
</g>
</g>
<defs>
<clipPath id="clip0_1217_285600">
<rect width="36" height="24" fill="white"/>
</clipPath>
</defs>
</svg>
