<svg width="36" height="24" viewBox="0 0 36 24" fill="none" xmlns="http://www.w3.org/2000/svg">
<g clip-path="url(#clip0_1217_282434)">
<rect width="36" height="24" fill="#FF4E4E"/>
<path d="M48 0L0 0L0 24L48 24L48 0Z" fill="#FF00FF"/>
<path d="M0 0L48 0L48 24L0 24L0 0Z" fill="#006400"/>
<path d="M0.380859 3.42859L47.9999 3.42859V20.5715L0.380859 20.5715L0.380859 3.42859Z" fill="#FFD200"/>
<path d="M0.380859 6.85718L47.9999 6.85718V17.1429L0.380859 17.1429L0.380859 6.85718Z" fill="#D40000"/>
<path d="M0.380859 10.2858L47.9999 10.2858V13.7143L0.380859 13.7143L0.380859 10.2858Z" fill="black"/>
<path d="M0 24H0.952383L16.9524 12L0.952383 0L0 0L0 24ZM0.571465 1.14287L15.0476 12L0.571465 22.8571L0.571465 1.14287Z" fill="black"/>
<path d="M16 12L0 24L0 0L16 12Z" fill="white"/>
<path d="M6.09578 6.03711L9.23066 15.6853L1.02344 9.72242L11.1682 9.72242L2.96096 15.6853L6.09584 6.03711H6.09578Z" fill="#D40000"/>
<path d="M4.36068 8.72368C4.3264 8.63795 4.33208 8.54274 4.37591 8.46083C4.41974 8.38085 4.49972 8.32366 4.59112 8.30842C4.68827 8.29126 4.78542 8.28557 4.88444 8.28745C4.97778 8.14266 5.134 8.04938 5.30538 8.03602C5.47683 8.0246 5.64441 8.09315 5.75872 8.2227C5.89396 8.37698 5.97394 8.57128 5.99111 8.77506L6.06159 9.65889L8.7511 11.7636C8.82142 11.8206 8.83226 11.9237 8.7753 11.994C8.73476 12.0441 8.66866 12.0657 8.60638 12.0493L8.494 12.0169C8.06163 12.2855 7.74159 12.7541 7.67878 13.257L7.51689 14.5369H4.6731L4.29593 13.0722C4.16069 12.9083 4.14165 12.6779 4.24829 12.495C4.38734 12.2569 4.55497 12.036 4.74734 11.8379C4.87308 11.7121 4.93021 11.5331 4.90542 11.3559C4.87876 11.1807 4.8654 11.0036 4.86353 10.8264C4.86159 10.6798 4.894 10.5331 4.95687 10.4017L4.92066 9.07975C4.91491 8.92354 4.82925 8.78069 4.69402 8.70452L4.36068 8.72356V8.72368Z" fill="#FFD200"/>
<path d="M7.5175 14.5732H4.67371C4.65718 14.5732 4.64277 14.562 4.63867 14.546L4.26349 13.0889C4.12392 12.9145 4.10523 12.6696 4.21767 12.4769C4.35841 12.2359 4.5281 12.0124 4.72199 11.8128C4.83824 11.6965 4.89349 11.5278 4.87023 11.3611C4.84416 11.1899 4.82998 11.0101 4.82798 10.8269C4.82605 10.6781 4.85822 10.5287 4.92109 10.3941L4.88511 9.08088C4.88001 8.94131 4.80396 8.81211 4.68584 8.74139L4.36334 8.75984C4.34781 8.76072 4.33345 8.75158 4.32765 8.73717C4.28957 8.64201 4.29578 8.53508 4.34459 8.44379C4.39398 8.35356 4.4841 8.28975 4.58576 8.27276C4.67347 8.25729 4.76541 8.25014 4.86589 8.25102C4.96609 8.10693 5.12804 8.01359 5.30318 7.99994C5.48541 7.98781 5.66587 8.06211 5.78646 8.19875C5.92421 8.3559 6.00988 8.55945 6.02775 8.77203L6.09695 9.64016L8.77398 11.7351C8.77398 11.7351 8.77427 11.7354 8.77445 11.7355C8.81593 11.7691 8.84189 11.8169 8.84746 11.87C8.85302 11.9231 8.83761 11.9752 8.80398 12.0168C8.75459 12.0778 8.67361 12.1043 8.59773 12.0843C8.59744 12.0843 8.5972 12.0842 8.59691 12.0841L8.50005 12.0562C8.07478 12.3261 7.77455 12.7865 7.71519 13.2614L7.5533 14.5415C7.55101 14.5596 7.5356 14.5731 7.51738 14.5731L7.5175 14.5732ZM4.70171 14.5009H7.48556L7.64347 13.2525C7.70611 12.7514 8.02492 12.2662 8.4755 11.9863C8.48417 11.9809 8.49478 11.9795 8.50462 11.9823L8.61654 12.0145C8.66488 12.027 8.71632 12.0101 8.74779 11.9713C8.76923 11.9448 8.77908 11.9115 8.77556 11.8777C8.77199 11.8439 8.75552 11.8135 8.72916 11.792L6.03988 9.68744C6.03191 9.68123 6.02693 9.67192 6.02611 9.66184L5.95562 8.77801C5.93904 8.5809 5.85964 8.39211 5.73209 8.24662C5.62638 8.1268 5.46794 8.06158 5.30839 8.07219C5.14937 8.08455 5.0023 8.17238 4.91546 8.30709C4.90867 8.31764 4.89689 8.32408 4.88435 8.32367C4.78076 8.32168 4.68712 8.32836 4.598 8.34406C4.51773 8.35742 4.44689 8.40758 4.40822 8.47818C4.37376 8.54264 4.36615 8.61711 4.38642 8.68596L4.69251 8.6685C4.69943 8.66809 4.70628 8.66967 4.71232 8.67313C4.85734 8.75481 4.95121 8.9102 4.95742 9.0786L4.99363 10.4008C4.9938 10.4066 4.99257 10.4122 4.99011 10.4174C4.92953 10.544 4.89847 10.6854 4.90035 10.8261C4.90228 11.006 4.91623 11.1824 4.94183 11.3506C4.96832 11.5401 4.90539 11.7317 4.77355 11.8636C4.58406 12.0587 4.41794 12.2774 4.28019 12.5134C4.18158 12.6823 4.19939 12.8977 4.32449 13.0492C4.32789 13.0533 4.33029 13.0581 4.33164 13.0632L4.70177 14.5008L4.70171 14.5009Z" fill="black"/>
<path d="M5.11504 14.5733C5.09506 14.5733 5.07883 14.5571 5.07883 14.5371V13.9888L4.83965 13.2933H4.34359C4.32361 13.2933 4.30738 13.277 4.30738 13.2571C4.30738 13.2371 4.32361 13.2209 4.34359 13.2209H4.55564C4.47514 13.147 4.41596 13.0646 4.37664 12.9712L4.32941 13.086C4.3218 13.1045 4.30065 13.1133 4.28219 13.1057C4.26373 13.0981 4.25488 13.0769 4.2625 13.0585L4.34629 12.8547C4.35221 12.8403 4.36662 12.8314 4.38209 12.8324C4.39762 12.8334 4.41074 12.8442 4.41473 12.8592C4.44027 12.9553 4.48568 13.0397 4.55266 13.115C4.53221 12.9383 4.55934 12.736 4.63029 12.5533C4.70459 12.3619 4.8615 12.1015 5.18717 11.9482C5.47463 11.8141 5.50814 11.5026 5.50926 11.3749C5.50926 11.2937 5.50926 11.1705 5.65398 11.113C5.67256 11.1056 5.69359 11.1147 5.70098 11.1333C5.70836 11.1518 5.69928 11.1729 5.6807 11.1803C5.58854 11.2168 5.58162 11.2812 5.58162 11.3752C5.58086 11.4663 5.56645 11.6018 5.50223 11.7326C5.43947 11.8604 5.34379 11.9549 5.21793 12.0137C4.914 12.1568 4.76734 12.4004 4.69779 12.5795C4.63199 12.7489 4.60615 12.9355 4.62361 13.0986C4.6624 13.01 4.6975 12.9201 4.72838 12.8301C4.73313 12.8163 4.74566 12.8067 4.7602 12.8057C4.77473 12.8048 4.78844 12.8126 4.79494 12.8256C4.82313 12.882 4.84791 12.9493 4.86912 13.0159C4.91641 12.8066 5.04865 12.6367 5.23926 12.5516L5.70848 12.3429C5.7117 12.3408 5.71533 12.3392 5.71914 12.3382L6.06596 12.184C6.16 12.142 6.33736 12.0449 6.47061 11.8667C6.47272 11.8622 6.4757 11.8581 6.47928 11.8549C6.54391 11.7654 6.59711 11.6562 6.62371 11.5239L6.08787 11.3719C5.92557 11.3253 5.78857 11.214 5.71188 11.0664C5.63799 10.9242 5.62756 10.7583 5.68258 10.5995C5.68914 10.5806 5.70977 10.5706 5.72863 10.5772C5.7475 10.5837 5.75752 10.6043 5.75096 10.6232C5.68885 10.8025 5.73033 10.9451 5.77609 11.0331C5.84365 11.1631 5.96453 11.2612 6.10768 11.3023L6.6666 11.4609C6.66812 11.4609 6.66959 11.4612 6.67111 11.4614C6.67551 11.4621 6.67955 11.4636 6.68318 11.4657L7.34746 11.6542C7.34875 11.6545 7.35004 11.6548 7.35127 11.6553L8.50369 11.9823C8.52291 11.9877 8.5341 12.0078 8.52865 12.027C8.5232 12.0462 8.50316 12.0574 8.48395 12.052L7.35871 11.7326C7.29045 11.8635 7.18738 11.9417 7.04447 11.9712C6.91146 11.9986 6.73914 11.983 6.5183 11.9235C6.41348 12.06 6.26969 12.1723 6.09531 12.2502L5.89979 12.3371H8.07865C8.09863 12.3371 8.11486 12.3534 8.11486 12.3734C8.11486 12.3933 8.09863 12.4096 8.07865 12.4096H5.73701L5.26861 12.6179C5.04848 12.7161 4.91582 12.9432 4.92244 13.2105C4.92256 13.2141 4.92209 13.2176 4.92121 13.221H7.67869C7.69867 13.221 7.7149 13.2372 7.7149 13.2572C7.7149 13.2772 7.69867 13.2934 7.67869 13.2934H7.20871C7.21088 13.2948 7.21293 13.2964 7.2148 13.2983L7.43301 13.5165L7.64359 13.3059C7.65771 13.2917 7.68063 13.2917 7.69475 13.3059C7.70887 13.32 7.70887 13.3429 7.69475 13.3571L7.45855 13.5933C7.45176 13.6001 7.44256 13.6039 7.43295 13.6039C7.42334 13.6039 7.41414 13.6001 7.40734 13.5933L7.18914 13.3751L6.97094 13.5933C6.96414 13.6001 6.95494 13.6039 6.94533 13.6039C6.93572 13.6039 6.92652 13.6001 6.91973 13.5933L6.70152 13.3751L6.48332 13.5933C6.47652 13.6001 6.46732 13.6039 6.45772 13.6039C6.44811 13.6039 6.43891 13.6001 6.43211 13.5933L6.21391 13.3751L5.9957 13.5933C5.98891 13.6001 5.97971 13.6039 5.9701 13.6039C5.96049 13.6039 5.95129 13.6001 5.94449 13.5933L5.72629 13.3751L5.50809 13.5933C5.50129 13.6001 5.49209 13.6039 5.48248 13.6039C5.47287 13.6039 5.46367 13.6001 5.45688 13.5933L5.23867 13.3751L5.02047 13.5933C5.02018 13.5936 5.01982 13.5939 5.01947 13.5942L5.08246 13.7774L5.21307 13.6468C5.21986 13.64 5.22906 13.6362 5.23867 13.6362C5.24828 13.6362 5.25748 13.64 5.26428 13.6468L5.48248 13.865L5.70068 13.6468C5.70748 13.64 5.71668 13.6362 5.72629 13.6362C5.7359 13.6362 5.7451 13.64 5.75189 13.6468L5.9701 13.865L6.1883 13.6468C6.1951 13.64 6.2043 13.6362 6.21391 13.6362C6.22352 13.6362 6.23271 13.64 6.23951 13.6468L6.45772 13.865L6.67592 13.6468C6.68272 13.64 6.69191 13.6362 6.70152 13.6362C6.71113 13.6362 6.72033 13.64 6.72713 13.6468L6.94533 13.865L7.16354 13.6468C7.17033 13.64 7.17953 13.6362 7.18914 13.6362C7.19875 13.6362 7.20795 13.64 7.21475 13.6468L7.43295 13.865L7.59215 13.7058C7.60627 13.6917 7.62918 13.6917 7.6433 13.7058C7.65742 13.72 7.65742 13.7429 7.6433 13.757L7.45855 13.9417C7.45668 13.9436 7.45469 13.9452 7.45246 13.9466H7.58529C7.60527 13.9466 7.6215 13.9628 7.6215 13.9828C7.6215 14.0028 7.60527 14.019 7.58529 14.019H5.15102V14.5371C5.15102 14.5571 5.13479 14.5733 5.1148 14.5733H5.11504ZM6.96502 13.9467H7.41361C7.41144 13.9452 7.40939 13.9436 7.40752 13.9418L7.18932 13.7236L6.97111 13.9418C6.96924 13.9437 6.96725 13.9453 6.96502 13.9467ZM6.4774 13.9467H6.926C6.92383 13.9452 6.92178 13.9436 6.9199 13.9418L6.7017 13.7236L6.4835 13.9418C6.48162 13.9437 6.47963 13.9453 6.4774 13.9467ZM5.98979 13.9467H6.43838C6.43621 13.9452 6.43416 13.9436 6.43229 13.9418L6.21408 13.7236L5.99588 13.9418C5.994 13.9437 5.99201 13.9453 5.98979 13.9467ZM5.50217 13.9467H5.95076C5.94859 13.9452 5.94654 13.9436 5.94467 13.9418L5.72647 13.7236L5.50826 13.9418C5.50639 13.9437 5.50439 13.9453 5.50217 13.9467ZM5.14088 13.9467H5.46314C5.46098 13.9452 5.45893 13.9436 5.45705 13.9418L5.23885 13.7236L5.10883 13.8536L5.14082 13.9467L5.14088 13.9467ZM4.91623 13.2933L4.99346 13.518L5.21324 13.2982C5.21512 13.2963 5.21711 13.2947 5.21934 13.2933H4.91623ZM5.74598 13.2933C5.74814 13.2947 5.7502 13.2964 5.75207 13.2982L5.97027 13.5164L6.18848 13.2982C6.19035 13.2963 6.19234 13.2947 6.19457 13.2933H5.74598ZM6.23359 13.2933C6.23576 13.2947 6.23781 13.2964 6.23969 13.2982L6.45789 13.5164L6.67609 13.2982C6.67797 13.2963 6.67996 13.2947 6.68219 13.2933H6.23359ZM5.25836 13.2933C5.26053 13.2947 5.26258 13.2964 5.26445 13.2982L5.48266 13.5164L5.70086 13.2982C5.70273 13.2963 5.70473 13.2947 5.70695 13.2933H5.25836ZM6.72121 13.2933C6.72338 13.2947 6.72543 13.2964 6.7273 13.2982L6.94551 13.5164L7.16371 13.2982C7.16559 13.2963 7.16758 13.2947 7.1698 13.2933H6.72121ZM4.64752 13.221H4.85154C4.85154 13.221 4.85143 13.2206 4.85137 13.2203C4.83115 13.1405 4.80221 13.0335 4.766 12.9399C4.73072 13.0346 4.691 13.1287 4.64752 13.221ZM6.56313 11.8605C6.95195 11.961 7.17309 11.916 7.28764 11.7124L6.69367 11.5438C6.66994 11.6575 6.62559 11.7641 6.56313 11.8605ZM4.95701 10.4381C4.94535 10.4381 4.93393 10.4325 4.92695 10.4221C4.91582 10.4055 4.92022 10.383 4.9368 10.3719L6.04158 9.62905C6.05816 9.61792 6.08066 9.62232 6.0918 9.6389C6.10293 9.65548 6.09854 9.67798 6.08195 9.68911L4.97717 10.432C4.97096 10.4361 4.96393 10.4381 4.95701 10.4381ZM4.6941 8.74095C4.67512 8.74095 4.65918 8.72612 4.65801 8.7069C4.65684 8.68692 4.67201 8.66981 4.69199 8.66864L5.0101 8.6496C5.03002 8.64843 5.04719 8.6636 5.04836 8.68358C5.04953 8.70356 5.03436 8.72067 5.01438 8.72185L4.69627 8.74089C4.69551 8.74089 4.69481 8.74095 4.6941 8.74095Z" fill="black"/>
<path d="M5.33133 8.67425C5.23154 8.67425 5.15039 8.5931 5.15039 8.49332C5.15039 8.39353 5.23154 8.31238 5.33133 8.31238C5.43111 8.31238 5.51227 8.39353 5.51227 8.49332C5.51227 8.5931 5.43111 8.67425 5.33133 8.67425ZM5.33133 8.38474C5.27145 8.38474 5.22275 8.43343 5.22275 8.49332C5.22275 8.5532 5.27145 8.60189 5.33133 8.60189C5.39121 8.60189 5.4399 8.5532 5.4399 8.49332C5.4399 8.43343 5.39121 8.38474 5.33133 8.38474Z" fill="black"/>
<path d="M5.97838 13.1314C5.80611 13.1314 5.66602 12.9913 5.66602 12.8191C5.66602 12.6469 5.80617 12.5067 5.97838 12.5067C6.15059 12.5067 6.29074 12.6469 6.29074 12.8191C6.29074 12.9913 6.15059 13.1314 5.97838 13.1314ZM5.97838 12.5791C5.84602 12.5791 5.73838 12.6867 5.73838 12.8191C5.73838 12.9514 5.84602 13.0591 5.97838 13.0591C6.11074 13.0591 6.21838 12.9514 6.21838 12.8191C6.21838 12.6868 6.11074 12.5791 5.97838 12.5791Z" fill="black"/>
<path d="M7.07408 13.1314C6.90182 13.1314 6.76172 12.9913 6.76172 12.8191C6.76172 12.6469 6.90187 12.5067 7.07408 12.5067C7.24629 12.5067 7.38645 12.6469 7.38645 12.8191C7.38645 12.9913 7.24629 13.1314 7.07408 13.1314ZM7.07408 12.5791C6.94172 12.5791 6.83408 12.6867 6.83408 12.8191C6.83408 12.9514 6.94172 13.0591 7.07408 13.0591C7.20644 13.0591 7.31408 12.9514 7.31408 12.8191C7.31408 12.6868 7.20644 12.5791 7.07408 12.5791Z" fill="black"/>
</g>
<defs>
<clipPath id="clip0_1217_282434">
<rect width="36" height="24" fill="white"/>
</clipPath>
</defs>
</svg>
