<svg width="24" height="24" viewBox="0 0 24 24" fill="none" xmlns="http://www.w3.org/2000/svg">
<g clip-path="url(#clip0_1217_276904)">
<rect width="24" height="24" fill="#FF4E4E"/>
<path d="M24 0L0 0L0 24L24 24L24 0Z" fill="#007934"/>
<path d="M16.696 0L7.30469 0L7.30469 24L16.696 24V0Z" fill="white"/>
<path d="M12.1081 5.5212C12.0821 5.80386 12.0558 6.08685 12.0298 6.36983C11.9339 6.38413 11.8384 6.39875 11.7426 6.41305C11.7426 6.41305 11.942 6.52514 11.9768 6.63755C11.9823 6.65542 11.9801 6.67037 11.9719 6.68174C11.9693 6.68531 11.9651 6.68921 11.9615 6.69213C11.9037 6.73665 11.7328 6.71553 11.7328 6.71553C11.7328 6.71553 11.9593 6.90657 11.9765 6.97577C11.9768 6.9774 11.9775 6.97902 11.9775 6.98032C11.9775 6.98162 11.9775 6.98389 11.9775 6.98487C11.9775 6.98584 11.9758 6.98779 11.9755 6.98877C11.9739 6.99202 11.9713 6.99592 11.968 6.99916C11.9148 7.04822 11.6636 7.06219 11.6636 7.06219C11.6636 7.06219 11.942 7.26071 11.9593 7.37312C11.9752 7.47514 11.9619 7.53492 11.9593 7.54499C11.9398 7.52842 11.4908 7.15122 11.2013 7.26136C11.187 7.26883 11.1782 7.27598 11.175 7.28313C11.1733 7.2867 11.173 7.29092 11.174 7.2945C11.1941 7.3572 11.6038 7.42153 11.8894 7.66846C11.8823 7.73019 11.0755 7.47189 11.0456 7.63369C11.071 7.67918 11.9141 7.80069 11.9765 7.91083C11.6659 7.92253 11.0245 7.8426 11.0456 7.94462C10.9807 8.06256 11.6516 7.99595 11.9329 8.09212C12.0155 8.18537 12.0073 8.26367 11.8641 8.27342C11.5928 8.14443 10.9859 8.04859 10.9842 8.21331C10.9842 8.21331 10.9842 8.21396 10.9842 8.21429C10.9842 8.21429 10.9852 8.21494 10.9852 8.21526C10.9852 8.21591 10.9859 8.21656 10.9862 8.21721C10.9872 8.21818 10.9894 8.21916 10.9911 8.22013C11.0596 8.25425 11.6249 8.23768 11.8377 8.37804C11.5359 8.44626 10.5128 8.23963 10.5063 8.34035C10.5356 8.38746 10.6974 8.59409 10.9761 8.58565C11.2546 8.57687 11.8992 8.69839 11.943 8.78481C11.9443 8.78741 11.9443 8.79033 11.944 8.79228C11.9251 8.85271 11.095 8.60806 10.776 8.75849C10.4452 8.91444 11.7247 8.8199 11.9336 9.01029C12.1425 9.20068 11.5158 8.99242 11.5158 8.99242C11.5158 8.99242 10.6457 8.87156 10.5151 8.93231C10.3845 8.99307 10.2363 9.13148 10.2363 9.13148C10.2363 9.13148 10.3231 9.30432 10.4101 9.26956C10.4235 9.26436 10.4326 9.26306 10.4374 9.26501H10.4384L10.4394 9.26598C10.4394 9.26598 10.44 9.26663 10.4404 9.26696C10.4404 9.26696 10.441 9.26761 10.4413 9.26793L10.4423 9.26891C10.4426 9.26988 10.443 9.27151 10.4433 9.27281C10.4452 9.2988 10.3838 9.37418 10.3838 9.37418C10.3838 9.37418 11.6032 9.66788 11.8732 9.92748C12.1432 10.1871 10.3234 9.5207 10.3234 9.5207C10.3234 9.5207 9.59205 9.78907 10.3669 9.80629C10.2805 9.93203 10.4027 10.0094 10.4105 10.0139C10.4105 10.0139 11.6993 10.2826 11.83 10.4902C11.9606 10.6981 10.9508 10.2907 10.7243 10.1783C10.506 10.0698 9.8981 10.2358 9.86334 10.2865C9.86334 10.2868 9.86269 10.2881 9.86236 10.2884C9.86236 10.2884 9.86236 10.2891 9.86236 10.2894C9.86236 10.2897 9.86236 10.291 9.86236 10.2914C9.86236 10.2914 9.86236 10.292 9.86236 10.2923C9.86236 10.2923 9.86236 10.293 9.86236 10.2933C9.86236 10.2933 9.86334 10.294 9.86334 10.2943C9.86334 10.2943 9.86334 10.2949 9.86334 10.2953C9.86366 10.2959 9.86464 10.2975 9.86529 10.2982C9.86529 10.2982 9.86594 10.2988 9.86626 10.2992C9.90525 10.3417 10.1765 10.4005 10.1847 10.474C10.1847 10.474 10.1847 10.4746 10.1847 10.4749C10.1847 10.4788 10.1837 10.4834 10.1817 10.4873C10.1476 10.5532 9.8237 10.5812 9.81038 10.6432C9.81038 10.6442 9.80941 10.6458 9.80941 10.6471C9.80941 10.7163 11.4378 11.0539 11.8732 11.4175C12.3085 11.781 10.5937 10.9844 10.5937 10.9844C10.5937 10.9844 10.6896 11.114 10.5937 11.1488C10.4979 11.1835 10.1577 10.664 9.6005 10.9844C9.49913 11.1163 10.0869 11.2209 10.2366 11.2352C10.1856 11.3658 10.1411 11.409 10.35 11.5387C10.3728 11.5529 10.3858 11.5614 10.3906 11.5659C10.3906 11.5659 10.3913 11.5666 10.3916 11.5669L10.3926 11.5679V11.5689V11.5698H10.3916C10.3916 11.5698 10.391 11.5698 10.3906 11.5698C10.3582 11.565 9.9829 11.373 9.94359 11.3652C9.94326 11.3652 9.94196 11.3652 9.94164 11.3652H9.94066C9.94066 11.3824 9.9842 11.5906 9.9842 11.5906C9.79121 11.4347 9.55826 11.3879 9.3396 11.5474C9.33928 11.5565 9.33765 11.706 9.55696 11.7982C9.4335 12.0494 9.69667 11.9714 10.1145 12.205C9.49328 12.0435 9.44357 12.3434 9.88771 12.4126C10.3318 12.4818 11.5509 12.5254 11.8381 12.8974C11.8988 12.976 11.9151 13.0153 11.9034 13.028C11.8556 13.0712 11.4147 12.7541 11.3507 12.7424C11.3507 12.7424 11.3501 12.7424 11.3498 12.7424C11.3498 12.7424 11.3491 12.7431 11.3488 12.7434C11.3481 12.7444 11.3468 12.7463 11.3459 12.7479C11.3303 12.7824 11.3156 12.9321 11.3156 12.9321C11.1298 12.8253 10.9595 12.7294 10.7373 12.6839C10.7198 12.7187 10.7237 12.7677 10.7061 12.8022C10.5044 12.6576 10.3289 12.5559 10.0362 12.5419C10.0245 12.5881 10.0128 12.6349 10.0011 12.681C10.0011 12.681 9.7571 12.3779 9.2782 12.681C9.0108 12.8717 10.2883 12.7499 10.4972 12.975C10.7061 13.2002 10.5408 13.2343 10.5408 13.2343C10.3666 13.1709 10.1931 13.1079 10.0193 13.0446C10.0193 13.0446 9.40068 12.9315 9.22654 13.0699C9.05239 13.2083 11.7685 13.5462 11.8468 13.9185C11.8998 14.1203 11.2087 13.707 10.6109 13.5296C10.5879 13.5956 10.5641 13.6619 10.5411 13.7278C10.5268 13.7139 10.2958 13.4903 10.0365 13.4517C10.0365 13.4517 10.0355 13.4523 10.0355 13.4526C10.0355 13.453 10.0355 13.4539 10.0355 13.4546C10.0359 13.4828 10.0885 13.6856 10.0885 13.6856C10.0885 13.6856 9.41888 13.3737 9.07936 13.5381C8.73984 13.7025 10.263 13.7892 10.4023 13.9449C10.4176 13.9617 10.4238 13.9744 10.4231 13.9825C10.4231 13.9838 10.4218 13.9861 10.4212 13.9871C10.3874 14.0361 9.93319 13.8552 9.88836 13.9449C9.83605 14.0488 9.09625 13.7548 9.10503 13.8932C9.1138 14.0316 9.20997 14.1093 9.20997 14.1093C9.20997 14.1093 10.751 14.2564 10.8033 14.438C10.8556 14.62 9.95009 14.3347 9.95009 14.3347C9.95009 14.3347 9.86236 14.464 9.93222 14.5245C9.93482 14.5267 9.93709 14.529 9.93774 14.53V14.531H9.93677C9.90525 14.5206 9.41465 14.2012 9.46241 14.4465C9.2704 14.3705 8.7746 14.1349 8.84446 14.3169C8.91301 14.4959 10.2058 14.7509 10.2441 14.7584C10.21 14.761 9.6632 14.8065 9.68854 14.9491C8.9559 14.5053 8.95752 14.7714 8.97409 14.7922V14.7932C8.93283 14.7867 8.03123 14.5635 8.74829 14.9491C9.13264 15.1561 9.22654 15.2367 9.22849 15.2675C9.22849 15.2682 9.22849 15.2698 9.22849 15.2704C9.22849 15.2714 9.22784 15.2724 9.22751 15.2734C9.22751 15.2734 9.22654 15.274 9.22654 15.2743C9.22621 15.275 9.22589 15.2756 9.22556 15.2763C9.22556 15.2763 9.22491 15.2769 9.22459 15.2773C9.22459 15.2773 9.22394 15.2779 9.22361 15.2782C9.22361 15.2782 9.22296 15.2789 9.22264 15.2792C9.22264 15.2792 9.22199 15.2802 9.22166 15.2802C9.20672 15.2896 9.17065 15.2857 9.16026 15.2857C9.15993 15.2857 9.15863 15.2857 9.15831 15.2857L9.15733 15.2867L9.15831 15.2877C9.16838 15.3029 9.22491 15.4553 9.22166 15.4823C9.22166 15.4826 9.22069 15.4839 9.22069 15.4842C9.22069 15.4842 9.22069 15.4849 9.22069 15.4852H9.21971V15.4862H9.21874H9.21776C9.18625 15.4784 8.71157 15.2259 8.5488 15.209C8.38342 15.1918 7.59977 15.4251 8.43541 15.7887C9.27105 16.1522 9.78471 15.7019 10.2461 15.7539C10.7074 15.8059 10.9254 15.8838 10.8822 16.031C10.8387 16.1782 10.4101 15.5486 9.95983 16.0931C9.44747 15.9924 9.10015 15.9339 9.36462 16.3082C8.528 15.9972 8.01726 16.403 9.07058 16.5674C10.1057 16.5977 10.7422 16.3166 10.7422 16.3166C10.7422 16.3166 10.917 16.6376 11.1694 16.4125C11.4102 16.198 11.429 16.4709 11.4378 16.4969C11.4378 16.4973 11.4384 16.4976 11.4388 16.4979V16.4989H11.4397C11.4583 16.4943 11.6828 16.3946 11.6828 16.3946C11.7032 16.3946 11.724 16.3946 11.7442 16.3946V18.472C12.0255 18.4749 12.3066 18.4775 12.5879 18.4804C12.5879 18.4804 12.3179 16.6717 12.4661 16.4294C12.6094 16.1945 12.7452 16.2198 12.7533 16.2217C12.7533 16.2217 13.3021 16.3858 13.3628 16.3598C13.3635 16.3595 13.3651 16.3592 13.3657 16.3589C13.3661 16.3589 13.3674 16.3582 13.3677 16.3579C13.3687 16.3572 13.3706 16.3559 13.3716 16.355C13.3716 16.355 13.3722 16.3543 13.3726 16.354C13.4171 16.3134 13.3716 16.1538 13.6504 16.1782C13.7365 16.147 13.7036 16.0106 13.7589 15.9771C13.7599 15.9764 13.7615 15.9758 13.7628 15.9751C13.7647 15.9742 13.768 15.9729 13.7702 15.9722C13.7735 15.9712 13.7777 15.9706 13.7816 15.9703C13.8687 15.9615 15.5487 16.4375 15.9146 15.9872C15.8187 15.736 15.4877 15.9699 15.4006 15.9787C15.3223 15.9787 14.9912 15.8228 14.7995 15.9787C14.6254 15.8488 13.8336 15.7627 13.8336 15.7627C13.729 15.6587 15.7229 15.8143 15.836 15.7363C16.0709 15.5027 15.4009 15.5287 15.2963 15.6067C15.1105 15.4943 14.8772 15.5024 14.7349 15.5804C14.6666 15.4183 14.0194 15.4884 13.6595 15.4423C13.5441 15.3751 13.5636 15.3367 13.6416 15.2948C14.3931 15.3266 15.141 15.4241 15.8964 15.3907C16.1004 15.1262 15.6394 15.0261 15.3567 15.2516C15.1907 14.9803 14.8518 15.2428 14.6254 15.2168C14.3989 15.1908 14.5035 14.9144 14.7908 14.9576C15.078 15.0008 15.592 14.94 15.6875 14.8101C15.7833 14.6801 15.6303 14.5488 15.1563 14.672C14.9958 14.516 14.6433 14.672 14.4779 14.7236C14.2579 14.6015 13.7459 14.7067 13.5717 14.75C13.4012 14.6447 14.4685 14.4728 14.4685 14.4728C14.8804 14.4657 15.1127 14.3948 15.2433 14.3601C15.8662 14.0284 15.2346 13.9929 14.9077 14.234C14.705 14.0764 14.5123 14.2477 14.3294 14.3081C14.1579 14.3649 13.8411 14.4062 13.8021 14.39C13.8018 14.39 13.8005 14.3893 13.8001 14.389L13.7992 14.388L13.7982 14.387V14.3861V14.3851C13.7982 14.3848 13.7988 14.3838 13.7992 14.3831C13.8248 14.3435 14.2943 14.0569 14.2943 14.0569C14.2943 14.0569 14.9038 14.0131 15.0257 13.9959C15.1001 13.9855 15.3603 13.8627 15.3603 13.8175C15.358 13.7892 15.2495 13.7918 14.9207 13.8747C14.6247 13.9007 14.4509 13.8838 14.3375 13.8925C14.1556 13.8737 14.0789 13.8549 14.0636 13.838C14.063 13.8373 14.062 13.8357 14.0617 13.835C14.0604 13.8321 14.0614 13.8285 14.0636 13.8256C14.0643 13.825 14.0656 13.8233 14.0666 13.8227C14.1111 13.7873 14.3993 13.7616 14.3993 13.7616C14.3993 13.7616 15.2784 13.6814 15.3366 13.6355C15.3366 13.6355 15.3372 13.6349 15.3376 13.6346C15.3379 13.6342 15.3382 13.6329 15.3385 13.6326C15.3385 13.6326 15.3395 13.632 15.3395 13.6317C15.3577 13.2743 14.5935 13.4393 14.5731 13.4419C14.5753 13.1904 13.8836 13.4383 13.8511 13.4419H13.8502C13.8203 13.4244 13.8073 13.4062 13.8047 13.3893C13.8037 13.3828 13.8047 13.3756 13.8066 13.3695C13.8239 13.3175 13.9285 13.2775 13.9285 13.2775C14.1202 13.2314 14.4064 13.2171 14.4815 13.1563C14.4815 13.1563 15.0221 13.1515 15.0861 13.0088C14.9535 12.6449 13.9421 13.0731 13.8066 13.1385C13.7793 13.1385 13.7628 13.1316 13.7547 13.1206C13.7101 13.0559 13.9298 12.8431 13.9369 12.836C13.9369 12.836 13.9376 12.835 13.9379 12.835C13.9714 12.8256 14.7787 12.7846 15.1644 12.2645C15.1917 11.9432 14.7034 12.4458 14.7034 12.4458C14.667 12.0289 14.1725 12.4721 13.8849 12.5069C13.5977 12.5416 13.5893 12.3769 13.7894 12.3509C13.9896 12.3249 14.2157 12.3418 14.3291 12.039C14.4421 11.7359 14.7823 12.0565 14.8431 11.9441C14.9022 11.835 14.7319 11.742 14.7212 11.7365C14.7212 11.7365 14.9737 11.4759 14.5643 11.4847C14.1592 11.4932 13.6357 11.4344 13.625 11.4331C13.6504 11.4233 14.063 11.2687 14.4509 11.2771C14.8515 11.2859 14.6335 10.9915 14.2504 10.9915C13.8674 10.9915 13.6673 10.8619 13.6673 10.8619C13.8849 10.781 14.1026 10.7004 14.3203 10.6195C14.3057 10.5591 14.2914 10.4987 14.2768 10.4382C14.2768 10.4382 14.6598 10.1351 14.1198 10.2043C13.5802 10.2735 13.5188 10.2823 13.5188 10.2823C13.5188 10.2823 12.456 10.4441 12.431 10.4467H12.43C12.4196 10.445 12.3144 10.4126 12.2949 10.3726C12.2942 10.3713 12.2933 10.3693 12.2929 10.368C12.2926 10.3664 12.2923 10.3641 12.292 10.3625C12.292 10.3606 12.2916 10.358 12.292 10.356C12.2965 10.3349 12.329 10.3122 12.4128 10.291C12.6913 10.2218 13.6757 10.023 13.8235 10.075C13.8427 10.0818 13.8567 10.0802 13.8651 10.073C13.9207 10.023 13.7361 9.7046 13.2829 9.65944C12.7605 9.60745 12.4391 9.78907 12.4391 9.78907C12.4391 9.78907 12.0993 9.66756 12.4128 9.56359C12.7263 9.45962 13.2228 9.59836 13.2228 9.59836C13.2228 9.59836 13.7797 9.43363 13.3183 9.36443C12.857 9.29522 12.7114 9.42681 12.4999 9.43396C12.4154 9.32934 13.2244 9.30432 13.2748 9.2179C13.1893 9.06195 12.689 9.2179 12.3959 9.2179C12.2712 9.16527 12.263 9.07982 12.4044 9.02718C12.7033 9.01549 12.9843 9.03303 13.2832 9.02166C13.2745 8.86311 13.2832 8.67467 13.2748 8.51612C12.8956 8.44724 12.4508 8.56648 12.238 8.5564C12.2949 8.38323 13.1136 8.3384 13.2049 8.29129C13.393 8.05736 12.4196 8.28771 12.3959 8.29129C12.2231 8.26594 12.2335 8.15743 12.343 8.09212C12.5954 8.06321 13.1617 8.12884 13.1188 7.95859C13.086 7.79907 12.7263 7.88451 12.5782 7.91928C12.4304 7.95404 12.2124 7.92773 12.2124 7.92773C12.1175 7.80101 13.0659 7.85267 13.0571 7.75488C13.0447 7.64246 12.456 7.71979 12.2556 7.72856C12.1016 7.62297 12.9798 7.55279 13.021 7.53882L13.022 7.53785C13.0548 7.24999 12.4125 7.53785 12.2907 7.53785C12.2699 7.53785 12.2539 7.53265 12.2426 7.52388C12.24 7.52193 12.2371 7.51868 12.2351 7.5164C12.1932 7.46799 12.2302 7.35655 12.2302 7.35655C12.2302 7.35655 12.4593 7.25421 12.4733 7.22984C12.4733 7.22984 12.4742 7.22919 12.4742 7.22887V7.22789V7.22692C12.4742 7.22692 12.4733 7.22627 12.4733 7.22594C12.4726 7.22529 12.4713 7.22399 12.4703 7.22302C12.4434 7.20255 12.2861 7.15057 12.2653 7.14894C12.2653 7.14894 12.2647 7.14894 12.2643 7.14894L12.2634 7.14797C12.2634 7.14797 12.2627 7.14732 12.2624 7.14699C12.2624 7.14699 12.2614 7.14634 12.2614 7.14602C12.2497 7.12198 12.2643 6.94978 12.2643 6.94978C12.2643 6.94978 12.4456 6.81462 12.457 6.76101C12.457 6.76069 12.457 6.75971 12.457 6.75906C12.457 6.75874 12.457 6.75744 12.457 6.75711C12.457 6.75679 12.457 6.75549 12.457 6.75516C12.457 6.75484 12.457 6.75354 12.457 6.75322C12.457 6.75322 12.457 6.75257 12.457 6.75224C12.457 6.75159 12.4564 6.75094 12.456 6.75029C12.456 6.75029 12.456 6.74964 12.456 6.74932C12.456 6.74932 12.4551 6.74867 12.4551 6.74834C12.4551 6.74802 12.4544 6.74769 12.4541 6.74737C12.4538 6.74704 12.4534 6.74574 12.4531 6.74542C12.4531 6.74542 12.4525 6.74477 12.4521 6.74444C12.4515 6.74379 12.4502 6.74314 12.4492 6.74249C12.4489 6.74249 12.4476 6.74184 12.4473 6.74152C12.4014 6.71975 12.212 6.78473 12.212 6.78473C12.212 6.7269 12.212 6.66939 12.212 6.61188C12.212 6.61188 12.3781 6.59402 12.3953 6.51604C12.3963 6.51149 12.3959 6.50694 12.3953 6.50304C12.3953 6.50142 12.395 6.49882 12.3943 6.49752C12.3933 6.49427 12.3917 6.49037 12.3894 6.48712C12.3891 6.4868 12.3878 6.48582 12.3875 6.48517C12.3495 6.43644 12.1948 6.42962 12.1948 6.42962C12.1659 6.12649 12.137 5.824 12.1077 5.52087L12.1081 5.5212ZM11.9531 8.4885V8.60774C11.9531 8.60774 11.7578 8.59767 11.7214 8.56745C11.7214 8.56745 11.7208 8.5668 11.7205 8.56648C11.7205 8.56648 11.7198 8.56583 11.7195 8.5655C11.7195 8.5655 11.7188 8.56485 11.7185 8.56453C11.7185 8.56453 11.7175 8.56388 11.7175 8.56355C11.7172 8.56323 11.7169 8.56225 11.7166 8.5616C11.7166 8.5616 11.7166 8.56095 11.7166 8.56063C11.7166 8.56063 11.7156 8.55998 11.7156 8.55965C11.7156 8.55965 11.7156 8.559 11.7156 8.55868C11.7156 8.55835 11.7156 8.55705 11.7156 8.55673C11.7156 8.55673 11.7156 8.55608 11.7156 8.55575C11.7156 8.55575 11.7156 8.5551 11.7156 8.55478C11.7156 8.55413 11.7162 8.55283 11.7166 8.55186C11.7166 8.55186 11.7175 8.55121 11.7175 8.55088C11.7179 8.55023 11.7188 8.54893 11.7195 8.54796C11.7195 8.54796 11.7201 8.54731 11.7205 8.54698C11.7208 8.54666 11.7221 8.54536 11.7224 8.54503C11.7237 8.54373 11.7253 8.54243 11.7273 8.54113C11.7929 8.49565 11.9235 8.49662 11.9495 8.48948C11.9495 8.48948 11.9502 8.48948 11.9505 8.48948C11.9505 8.48948 11.9511 8.4885 11.9515 8.4885H11.9524L11.9534 8.48753L11.9531 8.4885ZM12.2299 8.64705C12.2367 8.64705 12.6188 8.6503 12.6523 8.69969C12.6523 8.70001 12.6529 8.70098 12.6532 8.70163C12.6532 8.70228 12.6539 8.70391 12.6542 8.70456C12.6542 8.70488 12.6542 8.70586 12.6542 8.70651C12.6542 8.70716 12.6542 8.70878 12.6542 8.70943C12.6542 8.71008 12.6536 8.71138 12.6532 8.71236C12.624 8.77409 12.2374 8.81113 12.2374 8.81113L12.2299 8.6477V8.64705ZM12.2081 8.88293C12.2081 8.88293 12.2088 8.88293 12.2091 8.88293C12.2091 8.88293 12.2098 8.88293 12.2101 8.88293C12.2328 8.88878 12.3911 8.89397 12.4105 8.92062C12.4105 8.92062 12.4112 8.92127 12.4115 8.92159C12.4115 8.92159 12.4115 8.92224 12.4115 8.92257C12.4115 8.92257 12.4125 8.92322 12.4125 8.92354C12.4125 8.92354 12.4125 8.92419 12.4125 8.92452C12.4125 8.92452 12.4125 8.92516 12.4125 8.92549C12.4125 8.92549 12.4125 8.92614 12.4125 8.92646C12.4125 8.92646 12.4125 8.92711 12.4125 8.92744C12.4125 8.92744 12.4125 8.92809 12.4125 8.92841C12.4125 8.92841 12.4115 8.92906 12.4115 8.92939C12.4115 8.92939 12.4115 8.93004 12.4115 8.93036C12.4115 8.93069 12.4109 8.93166 12.4105 8.93231C12.4105 8.93231 12.4096 8.93296 12.4096 8.93329C12.4096 8.93329 12.4096 8.93394 12.4096 8.93426C12.3768 8.97422 12.2306 8.98495 12.2234 8.98495H12.2224V8.98397C12.2224 8.98397 12.2215 8.98332 12.2215 8.983C12.2146 8.96968 12.2081 8.88325 12.2081 8.88325V8.88293ZM11.043 9.19678C11.1678 9.19028 11.4154 9.21952 11.8803 9.34721C11.8803 9.35696 11.8897 9.47684 11.8858 9.49666C11.8858 9.49666 11.8849 9.49731 11.8849 9.49764V9.49861L11.8839 9.49959C11.8767 9.49601 11.0382 9.25624 10.9615 9.26014C10.9595 9.26014 10.9569 9.26014 10.955 9.26014C10.9534 9.26014 10.9508 9.25949 10.9495 9.25916C10.9475 9.25851 10.9446 9.25721 10.943 9.25624C10.9423 9.25624 10.9407 9.25559 10.9401 9.25526C10.9401 9.25526 10.9394 9.25461 10.9391 9.25429C10.9365 9.25266 10.9339 9.25006 10.9326 9.24779C10.9326 9.24779 10.9316 9.24714 10.9316 9.24681C10.9316 9.24649 10.931 9.24519 10.9306 9.24487C10.9306 9.24487 10.9306 9.24422 10.9306 9.24389C10.9306 9.24357 10.9297 9.24227 10.9297 9.24194C10.9297 9.24194 10.9297 9.24129 10.9297 9.24097C10.9297 9.24064 10.9297 9.23934 10.9297 9.23902C10.9297 9.23869 10.9297 9.23739 10.9297 9.23707C10.9297 9.23609 10.9303 9.23447 10.9306 9.23317C10.9316 9.23057 10.9339 9.22732 10.9362 9.22472C10.9488 9.21238 10.981 9.1997 11.043 9.19646V9.19678ZM11.4778 9.55124C11.6113 9.54637 11.9316 9.62305 11.9492 9.61882C11.9492 9.64417 11.9635 9.76438 11.9472 9.78875C11.9472 9.78875 11.9466 9.7894 11.9463 9.78972C11.9463 9.78972 11.9456 9.79037 11.9453 9.7907C11.9453 9.7907 11.9446 9.79167 11.9443 9.79167C11.944 9.79167 11.9427 9.79232 11.9424 9.79265C11.9424 9.79265 11.9417 9.79265 11.9414 9.79265C11.9411 9.79265 11.9398 9.79265 11.9394 9.79265C11.9394 9.79265 11.9388 9.79265 11.9385 9.79265C11.9112 9.78582 11.4388 9.63669 11.4206 9.57561C11.4206 9.57464 11.4206 9.57269 11.4206 9.57171C11.4206 9.56944 11.4219 9.56684 11.4235 9.56522C11.4235 9.56522 11.4242 9.56457 11.4245 9.56424C11.4245 9.56424 11.4251 9.56359 11.4255 9.56327C11.4345 9.55612 11.4534 9.55189 11.4774 9.55092L11.4778 9.55124ZM12.7933 9.88004C12.921 9.87744 13.011 9.88849 12.9775 9.92715C12.8862 10.0324 12.2565 10.1188 12.2565 10.1188L12.2452 9.92715C12.2588 9.9252 12.5788 9.88427 12.7933 9.88004ZM10.9901 10.4775C11.0973 10.472 11.3465 10.5305 11.9021 10.7641L11.906 10.9022C11.906 10.9022 10.9654 10.6185 10.9326 10.5714C10.9163 10.5484 10.8864 10.4831 10.9901 10.4775ZM12.8329 10.6835C12.8615 10.6822 12.8816 10.6848 12.8888 10.692C12.8888 10.692 12.8894 10.6926 12.8898 10.6929C12.8901 10.6936 12.8904 10.6952 12.8907 10.6959C12.8907 10.6965 12.8917 10.6978 12.8917 10.6988C12.8914 10.7027 12.8885 10.7082 12.8833 10.7137C12.7959 10.8115 12.3257 10.9093 12.3257 10.9093C12.3257 10.9093 12.3257 10.7862 12.3257 10.7826H12.3267C12.3482 10.782 12.6932 10.691 12.8332 10.6838L12.8329 10.6835ZM10.7708 10.7004C10.9111 10.6929 11.2282 10.767 11.9388 11.1017C11.9388 11.1052 11.945 11.2206 11.9427 11.2313H11.9417C11.8995 11.2177 10.6632 10.7859 10.6632 10.7859C10.6619 10.781 10.6434 10.7072 10.7711 10.7004H10.7708ZM13.125 11.2407C13.1611 11.2391 13.1845 11.2423 13.1903 11.2501C13.191 11.2511 13.1913 11.2527 13.1913 11.254C13.1913 11.2579 13.188 11.2625 13.1819 11.268C13.0698 11.3687 12.355 11.4906 12.3296 11.4925H12.3287H12.3277L12.3267 11.4915C12.3267 11.4915 12.3261 11.4902 12.3257 11.4896C12.3257 11.4896 12.3257 11.4889 12.3257 11.4886C12.3257 11.4883 12.3248 11.4873 12.3248 11.4867C12.3202 11.4633 12.3352 11.3817 12.3361 11.37V11.3691H12.3371C12.3371 11.3691 12.3378 11.37 12.3381 11.37C12.3381 11.37 12.3387 11.37 12.3391 11.37C12.3849 11.3694 12.9327 11.2485 13.1253 11.2404L13.125 11.2407ZM11.0232 11.5555C11.236 11.5445 11.881 11.8385 11.9125 11.8476H11.9135C11.9102 11.8606 11.9096 11.9669 11.907 11.9838C11.907 11.9841 11.907 11.9854 11.907 11.9857H11.906C11.8884 11.9766 11.0047 11.6118 10.9657 11.641C10.9414 11.5835 10.9667 11.5585 11.0232 11.5555ZM12.9245 11.6325C12.9687 11.6306 13.0012 11.6325 13.0116 11.6381C13.0129 11.6387 13.0139 11.64 13.0145 11.641C13.0145 11.641 13.0145 11.6416 13.0145 11.642C13.0145 11.642 13.0145 11.6426 13.0145 11.6429C13.0145 11.6433 13.0145 11.6446 13.0145 11.6449C13.0145 11.6449 13.0139 11.6455 13.0136 11.6459C13.0129 11.6468 13.0116 11.6478 13.0106 11.6488C12.945 11.7069 12.3358 11.8265 12.3358 11.8265C12.3358 11.8265 12.3329 11.7144 12.3329 11.7034C12.3501 11.6998 12.7436 11.641 12.9245 11.6329V11.6325ZM12.8755 12.0205C12.9184 12.0192 12.9486 12.0215 12.9557 12.0289L12.9567 12.0299C12.9567 12.0299 12.9567 12.0315 12.9567 12.0318C12.9567 12.0318 12.9577 12.0325 12.9577 12.0328C12.9577 12.0328 12.9567 12.0335 12.9567 12.0338C12.9567 12.0341 12.9567 12.0354 12.9567 12.0357C12.9567 12.0357 12.9557 12.0364 12.9557 12.0367C12.9551 12.0377 12.9548 12.0387 12.9538 12.0396C12.9531 12.0403 12.9518 12.0419 12.9509 12.0426C12.8852 12.0991 12.3686 12.207 12.3686 12.207C12.3686 12.207 12.3543 12.0838 12.3543 12.0803C12.3686 12.0803 12.714 12.0263 12.8752 12.0211L12.8755 12.0205ZM10.6964 12.0513C10.8208 12.0435 11.1298 12.0946 11.8917 12.3697L11.9174 12.5182C11.9174 12.5182 10.6486 12.1108 10.6122 12.0981V12.0972C10.6122 12.0965 10.6122 12.0946 10.6122 12.0926C10.6126 12.089 10.6145 12.0829 10.6187 12.0777C10.6278 12.0666 10.648 12.0543 10.6964 12.0513ZM12.368 12.3736C12.3833 12.3769 12.5961 12.384 12.6354 12.4169C12.6354 12.4169 12.636 12.4175 12.6364 12.4178C12.6364 12.4178 12.637 12.4185 12.6373 12.4188C12.6373 12.4188 12.638 12.4195 12.6383 12.4198C12.6386 12.4204 12.639 12.4211 12.6393 12.4217C12.6393 12.4217 12.6403 12.4224 12.6403 12.4227C12.6406 12.4234 12.6409 12.425 12.6412 12.4256C12.6412 12.4256 12.6412 12.4263 12.6412 12.4266C12.6412 12.4266 12.6412 12.4272 12.6412 12.4276C12.6412 12.4279 12.6412 12.4292 12.6412 12.4295C12.6412 12.4295 12.6412 12.4302 12.6412 12.4305C12.6412 12.4308 12.6406 12.4321 12.6403 12.4324C12.6403 12.4324 12.6403 12.4331 12.6403 12.4334C12.6403 12.4337 12.6396 12.435 12.6393 12.4354C12.6065 12.4861 12.3842 12.5049 12.3842 12.5049C12.3842 12.5049 12.3732 12.4055 12.3683 12.3743L12.368 12.3736ZM12.8829 12.6631C12.9323 12.6618 12.9681 12.6677 12.9755 12.682C12.9798 12.6917 12.9716 12.706 12.9483 12.7252C12.766 12.8737 12.369 12.9029 12.369 12.9029V12.7395C12.369 12.7395 12.3696 12.7395 12.3699 12.7395C12.3924 12.7369 12.7186 12.6674 12.8829 12.6635V12.6631ZM13.3885 12.8155C13.4515 12.8132 13.4785 12.8236 13.4866 12.8379C13.4873 12.8392 13.4882 12.8412 13.4886 12.8425C13.4892 12.8451 13.4899 12.8483 13.4895 12.8509C13.4876 12.8694 13.4671 12.8919 13.4518 12.9065C13.3898 12.9646 12.4021 13.2759 12.4021 13.2759C12.4021 13.2759 12.3946 13.0693 12.3982 13.0514C12.9759 12.8772 13.2582 12.8204 13.3885 12.8155ZM12.7497 13.4C12.8124 13.3977 12.8615 13.4013 12.8765 13.4159C12.8774 13.4169 12.8787 13.4185 12.8794 13.4198C12.8797 13.4205 12.88 13.4221 12.8803 13.4227C12.8803 13.4234 12.8803 13.4247 12.8803 13.4257C12.8803 13.427 12.8807 13.4289 12.8803 13.4302C12.8797 13.4331 12.8778 13.4364 12.8755 13.4396C12.791 13.5222 12.3803 13.5345 12.3803 13.5345V13.4322C12.4573 13.4296 12.6292 13.4045 12.7497 13.4003V13.4ZM13.1607 13.568C13.1802 13.5676 13.1923 13.5706 13.1939 13.5764C13.1939 13.5767 13.1939 13.5777 13.1939 13.5784C13.1929 13.5832 13.1871 13.5904 13.175 13.5992C13.011 13.7151 12.3946 13.8341 12.3946 13.8341C12.3946 13.8341 12.4024 13.7532 12.406 13.7337C12.4232 13.7337 13.0136 13.5719 13.1611 13.5683L13.1607 13.568ZM13.5068 13.697C13.5795 13.6963 13.6348 13.707 13.6666 13.7298H13.6676V13.7307C13.6676 13.7307 13.6676 13.7314 13.6676 13.7317C13.6676 13.732 13.6676 13.7333 13.6676 13.7337C13.6643 13.7561 13.6182 13.862 13.4557 13.9075C13.2533 13.8896 12.3937 14.1421 12.3764 14.1463H12.3755C12.3755 14.146 12.3755 14.145 12.3755 14.1443C12.3751 14.1281 12.3868 14.041 12.3868 14.041C12.6831 13.8649 13.2218 13.6999 13.5068 13.6973V13.697ZM11.3059 14.1931C11.3078 14.1931 11.3095 14.1931 11.3114 14.1931C11.6834 14.233 11.8222 14.3714 11.8615 14.427C11.7874 14.5563 11.1996 14.2662 11.2614 14.2044C11.2685 14.1983 11.2831 14.1937 11.3059 14.1931ZM13.4366 14.2174C13.4512 14.2168 13.4648 14.22 13.4743 14.2259C13.4782 14.2285 13.4821 14.2321 13.4847 14.2363C13.4882 14.2421 13.4905 14.2499 13.4912 14.2587C13.4522 14.3185 13.2514 14.2925 13.2387 14.2905C13.2488 14.287 13.3648 14.22 13.4363 14.2171L13.4366 14.2174ZM12.6399 14.6197C12.6675 14.6187 12.6903 14.6213 12.7033 14.6291C12.7049 14.6301 12.7069 14.6317 12.7082 14.633C12.7085 14.6333 12.7098 14.6343 12.7101 14.6349C12.7108 14.6356 12.7117 14.6372 12.7121 14.6379C12.7124 14.6385 12.7127 14.6398 12.713 14.6408C12.7153 14.6479 12.7143 14.6574 12.7082 14.6691C12.6497 14.7779 12.3943 14.7376 12.3943 14.7376V14.6616H12.3953C12.4096 14.6629 12.5506 14.6239 12.6399 14.6203V14.6197ZM11.1356 14.9062C11.2143 14.9023 11.2828 14.9537 11.355 14.9946C11.5155 14.9621 11.8446 15.0199 11.8446 15.0199V15.1645C11.8446 15.1645 11.8439 15.1655 11.8436 15.1655C11.8436 15.1655 11.8429 15.1655 11.8426 15.1655C11.8127 15.1707 11.4271 15.1538 11.341 15.0999C11.2708 15.0999 11.072 14.9956 11.0567 14.942C11.0567 14.9416 11.0557 14.9407 11.0557 14.94C11.0557 14.9394 11.0557 14.9377 11.0557 14.9371C11.0557 14.9368 11.0557 14.9355 11.0557 14.9351C11.0557 14.9348 11.0557 14.9335 11.0557 14.9332C11.0557 14.9332 11.0557 14.9325 11.0557 14.9322C11.0557 14.9319 11.0567 14.9306 11.0567 14.9303C11.0567 14.9303 11.0567 14.9296 11.0567 14.9293C11.0843 14.9147 11.111 14.9072 11.136 14.9059L11.1356 14.9062ZM12.8225 14.9774C12.8829 14.9741 12.9083 14.9927 12.8612 15.0593C12.7299 15.2441 12.3907 15.1681 12.3907 15.1681L12.3764 15.0534C12.496 15.058 12.715 14.9829 12.8225 14.9774ZM11.5544 15.3523C11.6915 15.3458 11.8407 15.4004 11.8407 15.4004C11.8442 15.4072 11.9144 15.545 11.852 15.5911C11.8498 15.5927 11.8472 15.5944 11.8446 15.5957C11.7679 15.6356 11.4021 15.5645 11.3806 15.4179C11.4238 15.3728 11.4875 15.3552 11.5544 15.3523ZM10.1395 15.4238C10.2649 15.4163 10.4053 15.4933 10.4212 15.5008H10.4222C10.4222 15.505 10.4173 15.6399 10.4173 15.6399C10.4173 15.6399 10.1687 15.571 10.0904 15.4322C10.106 15.428 10.1229 15.4248 10.1395 15.4238ZM12.5295 15.4426C12.6695 15.4417 12.8384 15.4745 12.8631 15.5216C12.8677 15.5313 12.8664 15.5417 12.8576 15.5525C12.7884 15.636 12.3946 15.5599 12.3946 15.5599V15.4586C12.4297 15.4485 12.4778 15.443 12.5298 15.4426H12.5295Z" fill="#007934"/>
</g>
<defs>
<clipPath id="clip0_1217_276904">
<rect width="24" height="24" fill="white"/>
</clipPath>
</defs>
</svg>
